<?xml version="1.0" encoding="utf-8"?>
<!-- Generator: Adobe Illustrator 20.1.0, SVG Export Plug-In . SVG Version: 6.00 Build 0)  -->
<svg version="1.1" id="图层_1" xmlns="http://www.w3.org/2000/svg" xmlns:xlink="http://www.w3.org/1999/xlink" x="0px" y="0px"
	 viewBox="0 0 104 30" style="enable-background:new 0 0 104 30;" xml:space="preserve">
<style type="text/css">
	.st0{fill:#999999;}
	.st1{fill:#3DC0F0;}
</style>
<title>Artboard Copy 5</title>
<desc>Created with Sketch.</desc>
<g id="Page-1">
	<g id="Artboard-Copy-5">
		<g id="Page-1-Copy">
			<path id="Fill-1" class="st0" d="M96.3,26.4h0.8v-7.8h-0.8V26.4z M98.1,17.7H99v10c0,0.9-0.4,1.3-1.3,1.3c-0.4,0-0.8,0-1.3,0
				c0-0.3-0.1-0.6-0.2-1c0.5,0.1,0.9,0.1,1.3,0.1s0.7-0.2,0.7-0.7L98.1,17.7L98.1,17.7z M90.8,18.3h4.4v7.4h-0.8v-6.6h-2.7v6.6h-0.8
				L90.8,18.3L90.8,18.3z M92.7,20.2h0.9v2.9c0,1.2-0.1,2.1-0.3,2.9c1,0.8,1.9,1.5,2.6,2.1l-0.6,0.7c-0.6-0.6-1.4-1.3-2.3-2
				c-0.5,1-1.4,1.8-2.6,2.5c-0.2-0.2-0.4-0.5-0.6-0.8c1.2-0.7,2-1.4,2.4-2.2c0.4-0.7,0.6-1.8,0.6-3.2L92.7,20.2L92.7,20.2z
				 M88.8,17.9c0.5,0.4,1.1,0.9,1.8,1.6c-0.3,0.2-0.5,0.5-0.7,0.7c-0.6-0.6-1.1-1.2-1.7-1.7L88.8,17.9z M88.1,28.6
				c0.5-1.3,0.9-2.7,1.2-4.3c0.4,0.2,0.7,0.3,0.9,0.4c-0.5,2-0.9,3.4-1.1,4.3L88.1,28.6z M88.3,20.9c0.7,0.5,1.3,1.1,1.9,1.6
				c-0.2,0.2-0.4,0.5-0.7,0.7c-0.7-0.7-1.3-1.3-1.8-1.7L88.3,20.9z M83.4,27.9h1.8v-3h-1.8V27.9z M85.5,23.5
				c-0.9-0.8-1.7-1.5-2.5-2.1l0.6-0.6c0.9,0.6,1.7,1.3,2.5,2L85.5,23.5z M80.8,27.9h1.7v-3h-1.7V27.9z M81.2,22.5
				c-0.2-0.2-0.5-0.4-0.7-0.6c1-1.2,1.8-2.7,2.4-4.3l0.9,0.3c-0.2,0.5-0.4,1-0.6,1.5h4.2v0.8h-4.6C82.2,21,81.7,21.8,81.2,22.5
				L81.2,22.5z M79.3,23.7h0.9v-6.1h-0.9V23.7z M78.1,27.9h1.7v-3h-1.7V27.9z M76.8,23.2h0.9v-4.9h-0.9V23.2z M75.9,27.9h1.4v-3.8
				H86v3.8h1.4v0.8H75.9V27.9z M71.8,25.9c-0.6-0.7-1.3-1.4-2-2.1l0.6-0.6c0.8,0.7,1.4,1.4,2,2.1L71.8,25.9z M66.9,20.2
				c-0.6-0.6-1.2-1.2-1.8-1.8l0.6-0.6c0.6,0.6,1.3,1.1,1.9,1.7L66.9,20.2z M64.3,20.7h4.4c0.1-1,0.2-2,0.2-3.1h1
				c0,1.2-0.1,2.2-0.2,3.1h5c0,2.4-0.1,4.4-0.2,6c-0.1,1.5-0.9,2.2-2.3,2.2c-0.6,0-1.3,0-2.2-0.1c0-0.3-0.1-0.7-0.2-1.1
				c0.7,0.1,1.5,0.2,2.2,0.2c0.9,0,1.4-0.5,1.5-1.4c0.1-1.5,0.2-3.2,0.2-4.9h-4.1c-0.6,3.4-2.2,6-4.8,7.7c-0.2-0.3-0.5-0.6-0.7-0.9
				c2.4-1.4,3.9-3.7,4.5-6.8h-4.3V20.7z M56.7,19.4h6.1v-0.9h-6.1V19.4z M56.1,22h7.4v0.9h-2.3v4.6c0,1-0.5,1.5-1.5,1.5
				c-0.7,0-1.3,0-2,0c0-0.3-0.1-0.7-0.2-1.1c0.6,0.1,1.2,0.1,1.8,0.1c0.5,0,0.8-0.3,0.8-0.8v-4.3H56L56.1,22L56.1,22z M52.3,21.8
				c-0.1-0.3-0.3-0.6-0.5-0.9c1.2-1,2.2-2.1,3-3.4l0.8,0.5C54.8,19.5,53.7,20.7,52.3,21.8L52.3,21.8z M52.2,25.6
				c-0.1-0.3-0.3-0.6-0.4-0.9c1.2-1,2.3-2.4,3.3-4.2l0.8,0.5c-0.4,0.7-0.8,1.3-1.3,2v6.2h-1v-5C53.2,24.7,52.7,25.2,52.2,25.6
				L52.2,25.6z M42.2,23.1h7.4v-2.9h-7.4V23.1z M45.7,19.3c-0.3-0.4-0.6-0.9-1-1.3l0.8-0.5c0.4,0.4,0.7,0.9,1.1,1.5L46,19.4h4.4v5.2
				h-0.9V24h-7.4c-0.1,2.2-0.7,4-1.7,5.4c-0.2-0.3-0.4-0.5-0.7-0.8c1-1.2,1.5-3,1.5-5.5v-3.7L45.7,19.3L45.7,19.3z M34.4,24.4h3.4
				v-2.2h-3.4V24.4z M34.4,21.4h3.4v-2.2h-3.4V21.4z M30.1,21.4h3.3v-2.2h-3.3C30.1,19.2,30.1,21.4,30.1,21.4z M30.1,22.2
				c0,0.8,0,1.5-0.1,2.2h3.3v-2.2H30.1z M33.4,29v-3.7H30c-0.1,1.6-0.6,3-1.4,4c-0.2-0.3-0.4-0.5-0.7-0.8c0.5-0.7,0.9-1.5,1-2.4
				c0.2-0.8,0.3-2,0.3-3.6v-4.2h9.6v9.3c0,0.9-0.4,1.4-1.3,1.4c-0.5,0-1.1,0-1.8,0c0-0.3-0.1-0.6-0.2-1c0.7,0,1.2,0.1,1.7,0.1
				s0.7-0.2,0.7-0.7v-2.2h-3.4V29H33.4z M23.7,21.7c0.8-0.6,1.4-1.3,1.9-2.1H22C22.5,20.5,23,21.2,23.7,21.7L23.7,21.7z M21.6,27.8
				h4v-2.3h-4V27.8z M20.7,24.6h5.8v4.6h-0.9v-0.6h-4v0.6h-0.9V24.6z M20.4,22.2c-0.1-0.2-0.4-0.4-0.6-0.6c1-1.3,1.7-2.7,2.2-4
				l0.9,0.3c-0.2,0.4-0.3,0.7-0.5,1h4.2v0.8c-0.6,1-1.3,1.8-2.2,2.6c0.8,0.5,1.8,0.9,3,1.2c-0.2,0.3-0.3,0.6-0.5,1
				c-1.3-0.4-2.4-1-3.3-1.7c-1.1,0.7-2.2,1.3-3.5,1.8c-0.2-0.3-0.4-0.5-0.6-0.8c1.2-0.4,2.3-0.9,3.3-1.6c-0.6-0.5-1-1.1-1.4-1.8
				C21.2,21.1,20.8,21.6,20.4,22.2L20.4,22.2z M15.9,27.3c1.3-0.2,2.6-0.5,4.1-0.9c0,0.4,0,0.7,0,0.9c-1.2,0.3-2.5,0.6-3.7,0.9
				L15.9,27.3z M20.2,20c-0.9,1.7-1.9,3.2-2.9,4.6c0.8-0.1,1.6-0.2,2.3-0.3c0,0.4-0.1,0.6-0.1,0.8c-1.4,0.2-2.5,0.3-3.3,0.4L16,24.6
				c0.4-0.3,1.1-1.2,1.9-2.6c-0.7,0.1-1.4,0.1-1.8,0.1l-0.2-0.8c0.8-1.1,1.4-2.4,1.9-3.8l0.9,0.3c-0.5,1.1-1.1,2.2-1.8,3.4
				c0.3,0,0.8,0,1.5,0c0.3-0.5,0.6-1.1,0.9-1.7L20.2,20z M11,23.8c-0.5-0.8-0.9-1.6-1.4-2.5l0.7-0.4c0.4,0.6,0.8,1.3,1.2,2
				c0.5-0.9,0.8-1.8,1.1-2.6l0.8,0.3c-0.4,1.1-0.9,2.2-1.4,3.2c0.5,0.8,1,1.7,1.5,2.7l-0.8,0.4c-0.4-0.7-0.8-1.5-1.2-2.2
				c-0.5,0.9-1,1.7-1.5,2.5l-0.7-0.5C9.9,25.7,10.5,24.8,11,23.8L11,23.8z M7.3,23.6c-0.5-0.9-1.1-1.9-1.6-2.8l0.7-0.4
				c0.5,0.7,0.9,1.5,1.4,2.3c0.4-0.8,0.7-1.6,1-2.4l0.8,0.3c-0.4,1.1-0.8,2-1.3,3c0.4,0.8,0.9,1.5,1.3,2.3l-0.8,0.4
				c-0.3-0.6-0.7-1.2-1-1.9c-0.5,0.9-1,1.8-1.6,2.6l-0.7-0.4V29H4.6V18.3h10v9.4c0,0.8-0.4,1.3-1.3,1.3c-0.5,0-1.1,0-1.8,0
				c0-0.2-0.1-0.6-0.2-0.9c0.7,0.1,1.2,0.1,1.7,0.1s0.8-0.2,0.8-0.6v-8.3H5.5v7.4C6.2,25.5,6.8,24.6,7.3,23.6L7.3,23.6z"/>
			<polygon id="Fill-3" class="st1" points="9.1,0 6.1,0 5,2.6 8,2.6 			"/>
			<polygon id="Fill-4" class="st1" points="4.6,3.6 1,12 4.1,12 7.6,3.6 			"/>
			<path id="Fill-5" class="st1" d="M20.9,0h-3.1l-3,7c-0.4,1-0.9,1.7-1.4,2.1c-0.5,0.4-1.1,0.5-2,0.5c-1,0-1.5-0.2-1.5-0.7
				c0-0.2,0.2-0.7,0.5-1.5L13.6,0h-3.1L7.4,7.4C7,8.4,6.7,9.2,6.7,9.8c0,0.1,0,0.3,0,0.4c0.3,1.3,1.6,1.9,4,1.9
				c2.1,0,3.7-0.5,4.9-1.5c0.8-0.6,1.5-1.7,2.1-3.2L20.9,0z"/>
			<path id="Fill-6" class="st1" d="M23.7,5.5h4.4L29.2,3H24c-2.1,0-3.5,0.9-4.3,2.8c-0.2,0.5-0.3,0.9-0.3,1.3c0,1,0.7,1.5,2.1,1.5
				c0,0,0.1,0,0.2,0s0.2,0,0.3,0h1.9c0.3,0,0.5,0,0.5,0.1v0.1C24,9.3,23.6,9.5,23,9.5h-4.8l-1,2.5h6.1c0.8,0,1.6-0.3,2.3-0.9
				c0.6-0.5,1.1-1.2,1.4-2c0.2-0.5,0.3-0.9,0.3-1.2c0-1.1-0.8-1.6-2.4-1.6h-2c-0.1,0-0.2,0-0.3,0c-0.1,0-0.1-0.1,0-0.3
				C22.8,5.6,23.1,5.5,23.7,5.5"/>
			<path id="Fill-7" class="st1" d="M31.2,9.4C31.2,9.3,31.2,9.3,31.2,9.4c0-0.1,0-0.3,0.1-0.6h4.8l1.1-2.5h-4.7
				c0.3-0.3,0.6-0.5,0.9-0.7c0.3-0.1,0.6-0.1,1.1-0.1h3.1l1-2.5h-3.7c-2.9,0-5,1.4-6.2,4.3c-0.3,0.8-0.5,1.5-0.5,2.1
				c0,1.7,1.1,2.5,3.2,2.5h3.4l1-2.5h-3.5C31.7,9.5,31.3,9.5,31.2,9.4"/>
			<path id="Fill-8" class="st1" d="M44.8,7.2l0.5-1.3c0.3-0.7,0.4-1.2,0.4-1.6c0-0.9-0.7-1.3-2-1.3h-3.9L36,12h3l2.8-6.7h0.6h0.1
				h0.2c-0.1,0.2-0.2,0.5-0.3,0.8c-0.2,0.5-0.4,0.8-0.4,1L44.8,7.2L44.8,7.2z"/>
			<polygon id="Fill-9" class="st1" points="54.5,2.8 55.7,0 45.3,0 44.1,2.8 47.6,2.8 43.7,12 47,12 50.9,2.8 			"/>
			<path id="Fill-10" class="st1" d="M54.3,7.2h2.9l0.5-1.3c0.3-0.7,0.4-1.2,0.4-1.6c0-0.9-0.7-1.3-2-1.3h-3.9l-3.8,9h3l2.8-6.7h0.6
				h0.1H55c-0.1,0.2-0.2,0.5-0.3,0.8C54.5,6.6,54.4,7,54.3,7.2"/>
			<path id="Fill-11" class="st1" d="M62.7,9.6h-2.4c-0.3,0-0.4,0-0.5-0.1c0,0,0,0,0-0.1c0,0,0-0.1,0.1-0.1C60,9,60.1,8.8,60.3,8.7
				s0.4-0.1,0.8-0.1H63L62.7,9.6z M66.7,3.4C66.2,3.1,65.5,3,64.6,3H60l-1.1,2.5h4.2c0.6,0,1,0.1,1.1,0.2c0,0.1,0,0.3-0.1,0.6h-2.6
				c-1.2,0-2.1,0.2-2.8,0.6C57.9,7.3,57.3,8,56.8,9c-0.2,0.5-0.3,0.9-0.3,1.3c0,1.1,0.7,1.7,2.1,1.7h6L67,6.6
				c0.3-0.7,0.4-1.2,0.4-1.7C67.4,4.3,67.2,3.8,66.7,3.4L66.7,3.4z"/>
			<path id="Fill-12" class="st1" d="M71.8,9.5c-0.7,0-1.1-0.1-1.2-0.3c-0.1-0.1-0.1-0.2-0.1-0.4c0-0.3,0.1-0.7,0.3-1.1
				c0.3-0.7,0.7-1.2,1.1-1.6c0.5-0.4,1-0.5,1.8-0.5h3l1-2.6h-3.5c-3,0-5.1,1.5-6.4,4.4c-0.3,0.8-0.5,1.5-0.5,2.1s0.2,1.1,0.5,1.6
				c0.6,0.7,1.5,1,2.9,1h3.1L75,9.5H71.8z"/>
			<polygon id="Fill-13" class="st1" points="88.5,3 84.4,3 80.4,6.1 83,0 80,0 74.9,12 77.9,12 79.3,8.7 80.6,12 84.4,12 82.3,7.5 
							"/>
			<path id="Fill-14" class="st1" d="M88.5,9.4C88.5,9.3,88.5,9.3,88.5,9.4c0-0.1,0-0.3,0.1-0.6h4.8l1.1-2.5h-4.7
				c0.3-0.3,0.6-0.5,0.9-0.7c0.3-0.1,0.6-0.1,1.1-0.1h3.1l1-2.5h-3.7c-2.9,0-5,1.4-6.2,4.3c-0.3,0.8-0.5,1.5-0.5,2.1
				c0,1.7,1.1,2.5,3.2,2.5H92l1-2.5h-3.5C89,9.5,88.6,9.5,88.5,9.4"/>
			<path id="Fill-15" class="st1" d="M101,3h-3.9l-3.8,9h3l2.8-6.7h0.6h0.1h0.2c-0.1,0.2-0.2,0.5-0.3,0.8c-0.2,0.5-0.4,0.8-0.4,1
				h2.9l0.5-1.3c0.3-0.7,0.4-1.2,0.4-1.6C103.1,3.4,102.4,3,101,3"/>
		</g>
	</g>
</g>
</svg>
