<svg xmlns="http://www.w3.org/2000/svg" viewBox="0 0 120 30.06"><defs><style>.cls-1{fill:#69c72b;}.cls-2,.cls-3{isolation:isolate;}.cls-3{font-size:12px;fill:#999;font-family:MicrosoftYaHei, Microsoft YaHei;}</style></defs><title>ivt</title><g id="图层_2" data-name="图层 2"><g id="图层_1-2" data-name="图层 1"><g id="Page-1"><g id="VT"><g id="Group-9"><g id="Group-4"><polygon id="Fill-3" class="cls-1" points="9.09 0 7.98 2.61 11.04 2.61 12.15 0 9.09 0"/><polygon id="Fill-4" class="cls-1" points="4 11.99 7.05 11.99 10.62 3.61 7.56 3.61 4 11.99"/><polygon id="Fill-5" class="cls-1" points="22.5 0 16.12 7.64 16.29 0 12.91 0 12.97 11.99 15.94 11.99 25.97 0 22.5 0"/><polygon id="Fill-6" class="cls-1" points="29.9 0 26.85 0 25.74 2.61 28.79 2.61 29.9 0"/><polygon id="Fill-7" class="cls-1" points="25.32 3.61 21.75 11.99 24.81 11.99 28.37 3.61 25.32 3.61"/><path id="Fill-8" class="cls-1" d="M32.78,9.49h-1q-1.24,0-1.43-.39t.25-1.2A4.23,4.23,0,0,1,31.9,6a3.5,3.5,0,0,1,2-.47h.53ZM36.83,0,35.55,3H33.86a6,6,0,0,0-3.73,1.24,7.52,7.52,0,0,0-2.39,3.16,5.33,5.33,0,0,0-.49,2A2.38,2.38,0,0,0,27.82,11a3.17,3.17,0,0,0,2.53,1h4.39l5.1-12Z"/><path id="Fill-9" class="cls-1" d="M42.64,5.6a3.42,3.42,0,0,1,1.09-.14h3.09L47.87,3H44.14Q39.79,3,38,7.32a5.46,5.46,0,0,0-.5,2.12q0,2.55,3.21,2.55H44l1-2.45H41.63q-1,0-1.12-.18l0,0a1.25,1.25,0,0,1,.09-.56h4.84l1.06-2.5H41.75a2.11,2.11,0,0,1,.9-.66"/><path id="Fill-10" class="cls-1" d="M53.55,7.35a4.2,4.2,0,0,1-1.13,1.55,2.57,2.57,0,0,1-1.68.71q-.88,0-.88-.95a2.53,2.53,0,0,1,.23-1,3.93,3.93,0,0,1,1.41-1.75,2.55,2.55,0,0,1,1.41-.52q.92,0,.92.85a2.91,2.91,0,0,1-.28,1.11M57,5.56a2.45,2.45,0,0,0-.71-1.81,3.57,3.57,0,0,0-2.65-.92,6.8,6.8,0,0,0-3.25.81,7.18,7.18,0,0,0-3.22,3.68,5.48,5.48,0,0,0-.5,2.11,2.65,2.65,0,0,0,.37,1.4,3.19,3.19,0,0,0,3,1.34,6.56,6.56,0,0,0,3.92-1.27,7.5,7.5,0,0,0,2.57-3.25A5.41,5.41,0,0,0,57,5.56"/><polygon id="Fill-11" class="cls-1" points="66.66 2.75 67.82 0.03 57.43 0.03 56.27 2.75 59.8 2.75 55.88 11.99 59.17 11.99 63.1 2.75 66.66 2.75"/><path id="Fill-12" class="cls-1" d="M66.42,7.19H69.3l.54-1.26a4.51,4.51,0,0,0,.44-1.65q0-1.29-2-1.29H64.38l-3.82,9h3l2.82-6.65h.83q-.09.29-.31.81l-.44,1"/><path id="Fill-13" class="cls-1" d="M74.84,9.58H72.41a.79.79,0,0,1-.49-.09s0,0,0-.08L72,9.27a.94.94,0,0,1,.49-.54,2.45,2.45,0,0,1,.84-.1h1.92Zm4-6.15A3.75,3.75,0,0,0,76.75,3H72.11L71.06,5.46h4.19q.95,0,1.08.18t-.09.6H73.67a5.89,5.89,0,0,0-2.81.58A4.29,4.29,0,0,0,69,9a3.25,3.25,0,0,0-.29,1.26q0,1.72,2.14,1.72h6l2.28-5.37a4.45,4.45,0,0,0,.42-1.71,1.68,1.68,0,0,0-.73-1.47Z"/><path id="Fill-14" class="cls-1" d="M84,9.47q-1,0-1.21-.28a.6.6,0,0,1-.11-.4A3,3,0,0,1,83,7.67,3.93,3.93,0,0,1,84,6.1a2.71,2.71,0,0,1,1.75-.55h3L89.86,3H86.37A6.48,6.48,0,0,0,80,7.35,5.34,5.34,0,0,0,79.5,9.4,2.37,2.37,0,0,0,80,11a3.53,3.53,0,0,0,2.87,1H86l1.07-2.52Z"/><polygon id="Fill-15" class="cls-1" points="100.65 2.99 96.61 2.99 92.57 6.07 95.15 0 92.16 0 87.06 11.99 90.05 11.99 91.47 8.66 92.82 11.99 96.57 11.99 94.49 7.52 100.65 2.99"/><path id="Fill-16" class="cls-1" d="M100.68,9.35l0,0a1.25,1.25,0,0,1,.09-.56h4.84l1.06-2.5h-4.73a2.11,2.11,0,0,1,.89-.66,3.41,3.41,0,0,1,1.09-.14H107L108,3H104.3Q100,3,98.12,7.32a5.48,5.48,0,0,0-.5,2.12q0,2.55,3.21,2.55h3.38l1-2.45H101.8q-1,0-1.12-.18"/><path id="Fill-17" class="cls-1" d="M113.18,3h-3.85l-3.82,9h3l2.82-6.65h.83c-.06.19-.16.46-.31.81l-.44,1h2.87l.54-1.26a4.53,4.53,0,0,0,.44-1.65q0-1.29-2-1.29"/></g><g id="网络视频内容市场监测" class="cls-2"><text class="cls-3" transform="translate(0 27)">网络视频内容市场监测</text></g></g></g></g></g></g></svg>