<?xml version="1.0" encoding="utf-8"?>
<!-- Generator: Adobe Illustrator 20.1.0, SVG Export Plug-In . SVG Version: 6.00 Build 0)  -->
<svg version="1.1" id="图层_1" xmlns="http://www.w3.org/2000/svg" xmlns:xlink="http://www.w3.org/1999/xlink" x="0px" y="0px"
	 viewBox="0 0 112 30" style="enable-background:new 0 0 112 30;" xml:space="preserve">
<style type="text/css">
	.st0{fill:#69C72B;}
	.st1{fill:#999999;}
</style>
<title>Artboard</title>
<desc>Created with Sketch.</desc>
<g id="Page-1">
	<g id="Artboard">
		<g id="Group" transform="translate(0.000000, 1.000000)">
			<polygon id="Fill-3" class="st0" points="5.1,0 4,2.6 7,2.6 8.1,0 			"/>
			<polygon id="Fill-4" class="st0" points="0,12 3.1,12 6.6,3.6 3.6,3.6 			"/>
			<polygon id="Fill-5" class="st0" points="18.5,0 12.1,7.6 12.3,0 8.9,0 9,12 11.9,12 22,0 			"/>
			<polygon id="Fill-6" class="st0" points="25.9,0 22.8,0 21.7,2.6 24.8,2.6 			"/>
			<polygon id="Fill-7" class="st0" points="21.3,3.6 17.8,12 20.8,12 24.4,3.6 			"/>
			<path id="Fill-8" class="st0" d="M28.8,9.5h-1c-0.8,0-1.3-0.1-1.4-0.4c-0.1-0.2,0-0.6,0.2-1.2C27,7,27.4,6.4,27.9,6
				c0.4-0.3,1.1-0.5,2-0.5h0.5L28.8,9.5z M32.8,0l-1.3,3h-1.7c-1.4,0-2.6,0.4-3.7,1.2c-1,0.8-1.8,1.8-2.4,3.2
				c-0.3,0.8-0.5,1.4-0.5,2c0,0.6,0.2,1.2,0.6,1.6c0.5,0.6,1.4,1,2.5,1h4.4l5.1-12H32.8z"/>
			<path id="Fill-9" class="st0" d="M38.6,5.6c0.3-0.1,0.6-0.1,1.1-0.1h3.1L43.9,3h-3.7c-2.9,0-5,1.4-6.2,4.3
				c-0.3,0.8-0.5,1.5-0.5,2.1c0,1.7,1.1,2.5,3.2,2.5H40l1-2.5h-3.5c-0.7,0-1-0.1-1.1-0.2c0,0,0,0,0,0c0-0.1,0-0.3,0.1-0.6h4.8
				l1.1-2.5h-4.7C38,5.9,38.3,5.7,38.6,5.6"/>
			<path id="Fill-10" class="st0" d="M49.5,7.4c-0.3,0.6-0.6,1.1-1.1,1.6c-0.5,0.5-1.1,0.7-1.7,0.7c-0.6,0-0.9-0.3-0.9-0.9
				c0-0.3,0.1-0.6,0.2-1c0.3-0.7,0.8-1.3,1.4-1.8c0.5-0.3,1-0.5,1.4-0.5c0.6,0,0.9,0.3,0.9,0.9C49.8,6.6,49.7,6.9,49.5,7.4 M53,5.6
				c0-0.7-0.2-1.3-0.7-1.8c-0.6-0.6-1.5-0.9-2.7-0.9c-1.2,0-2.2,0.3-3.3,0.8c-1.4,0.8-2.5,2-3.2,3.7c-0.3,0.8-0.5,1.5-0.5,2.1
				c0,0.5,0.1,1,0.4,1.4c0.5,0.9,1.5,1.3,3,1.3c1.4,0,2.7-0.4,3.9-1.3c1.1-0.8,2-1.9,2.6-3.2C52.8,6.9,53,6.2,53,5.6"/>
			<polygon id="Fill-11" class="st0" points="62.7,2.8 63.8,0 53.4,0 52.3,2.8 55.8,2.8 51.9,12 55.2,12 59.1,2.8 			"/>
			<path id="Fill-12" class="st0" d="M62.4,7.2h2.9l0.5-1.3c0.3-0.7,0.4-1.2,0.4-1.6c0-0.9-0.7-1.3-2-1.3h-3.9l-3.8,9h3l2.8-6.7
				l0.6,0H63h0.2c-0.1,0.2-0.2,0.5-0.3,0.8C62.7,6.6,62.5,7,62.4,7.2"/>
			<path id="Fill-13" class="st0" d="M70.8,9.6h-2.4c-0.3,0-0.4,0-0.5-0.1c0,0,0,0,0-0.1c0,0,0-0.1,0.1-0.1c0.1-0.3,0.3-0.5,0.5-0.5
				c0.2-0.1,0.4-0.1,0.8-0.1h1.9L70.8,9.6z M74.8,3.4C74.4,3.1,73.7,3,72.7,3h-4.6l-1.1,2.5h4.2c0.6,0,1,0.1,1.1,0.2
				c0,0.1,0,0.3-0.1,0.6h-2.6c-1.2,0-2.1,0.2-2.8,0.6C66.1,7.3,65.4,8,65,9c-0.2,0.5-0.3,0.9-0.3,1.3c0,1.1,0.7,1.7,2.1,1.7h6
				l2.3-5.4c0.3-0.7,0.4-1.2,0.4-1.7C75.6,4.3,75.3,3.8,74.8,3.4L74.8,3.4z"/>
			<path id="Fill-14" class="st0" d="M80,9.5c-0.7,0-1.1-0.1-1.2-0.3c-0.1-0.1-0.1-0.2-0.1-0.4c0-0.3,0.1-0.7,0.3-1.1
				C79.3,7,79.6,6.4,80,6.1c0.5-0.4,1-0.5,1.8-0.5h3L85.9,3h-3.5c-3,0-5.1,1.5-6.4,4.4c-0.3,0.8-0.5,1.5-0.5,2.1
				c0,0.6,0.2,1.1,0.5,1.6c0.6,0.7,1.5,1,2.9,1H82l1.1-2.5H80z"/>
			<polygon id="Fill-15" class="st0" points="96.7,3 92.6,3 88.6,6.1 91.2,0 88.2,0 83.1,12 86.1,12 87.5,8.7 88.8,12 92.6,12 
				90.5,7.5 			"/>
			<path id="Fill-16" class="st0" d="M96.7,9.4C96.7,9.3,96.7,9.3,96.7,9.4c0-0.1,0-0.3,0.1-0.6h4.8l1.1-2.5h-4.7
				c0.3-0.3,0.6-0.5,0.9-0.7c0.3-0.1,0.6-0.1,1.1-0.1h3.1L104,3h-3.7c-2.9,0-5,1.4-6.2,4.3c-0.3,0.8-0.5,1.5-0.5,2.1
				c0,1.7,1.1,2.5,3.2,2.5h3.4l1-2.5h-3.5C97.1,9.5,96.8,9.5,96.7,9.4"/>
			<path id="Fill-17" class="st0" d="M109.2,3h-3.9l-3.8,9h3l2.8-6.7l0.6,0h0.1h0.2c-0.1,0.2-0.2,0.5-0.3,0.8
				c-0.2,0.5-0.4,0.8-0.4,1h2.9l0.5-1.3c0.3-0.7,0.4-1.2,0.4-1.6C111.2,3.4,110.5,3,109.2,3"/>
			<path id="网络视频市场监测" class="st1" d="M10,20.2l0.7-0.4c0.5,0.7,0.9,1.5,1.4,2.3c0.4-0.8,0.7-1.6,1-2.4l0.8,0.3
				c-0.4,1.1-0.8,2-1.3,3c0.4,0.8,0.9,1.5,1.3,2.3l-0.8,0.4c-0.3-0.6-0.7-1.2-1-1.9c-0.5,0.9-1,1.8-1.6,2.6L9.9,26v2.4H9V17.7h10
				v9.4c0,0.8-0.4,1.3-1.3,1.3c-0.5,0-1.1,0-1.8,0c0-0.3-0.1-0.6-0.2-0.9c0.7,0.1,1.2,0.1,1.7,0.1c0.5,0,0.8-0.2,0.8-0.6v-8.3H9.9
				v7.4c0.7-1,1.3-2,1.8-3C11.1,22,10.6,21.1,10,20.2z M13.9,20.7l0.7-0.4c0.4,0.6,0.8,1.3,1.2,2c0.4-0.9,0.8-1.8,1.1-2.6l0.8,0.3
				c-0.4,1.1-0.9,2.2-1.4,3.2c0.5,0.8,1,1.7,1.5,2.7L17,26.3c-0.4-0.7-0.8-1.5-1.2-2.2c-0.5,0.9-1,1.7-1.5,2.5l-0.7-0.5
				c0.7-1,1.3-1.9,1.8-2.9C14.9,22.4,14.4,21.6,13.9,20.7z M24.2,20.9c1-1.3,1.7-2.7,2.2-4l0.9,0.3c-0.2,0.4-0.3,0.7-0.5,1H31v0.8
				c-0.6,1-1.3,1.8-2.2,2.6c0.8,0.5,1.8,0.9,3,1.2c-0.2,0.3-0.3,0.6-0.5,1c-1.3-0.4-2.4-1-3.3-1.7c-1.1,0.7-2.2,1.3-3.5,1.8
				c-0.2-0.3-0.4-0.5-0.6-0.8c1.2-0.4,2.3-0.9,3.3-1.6c-0.6-0.5-1-1.1-1.4-1.8c-0.4,0.6-0.7,1.2-1.1,1.7
				C24.7,21.4,24.5,21.2,24.2,20.9z M25.1,24h5.8v4.6H30V28h-4v0.6h-0.9V24z M21.7,24c0.8-0.1,1.6-0.2,2.3-0.3
				c0,0.4-0.1,0.6-0.1,0.8c-1.4,0.2-2.5,0.3-3.3,0.4l-0.2-0.9c0.4-0.3,1.1-1.2,1.9-2.6c-0.7,0.1-1.4,0.1-1.8,0.1l-0.2-0.8
				c0.8-1.1,1.4-2.4,1.9-3.8l0.9,0.3c-0.5,1.1-1.1,2.2-1.8,3.4c0.3,0,0.8,0,1.5,0c0.3-0.5,0.6-1.1,0.9-1.7l0.9,0.4
				C23.6,21.1,22.7,22.6,21.7,24z M30,24.9h-4v2.3h4V24.9z M29.9,19.1h-3.5c0.4,0.8,1,1.5,1.6,2.1C28.8,20.5,29.4,19.8,29.9,19.1z
				 M20.3,26.7c1.3-0.3,2.6-0.5,4.1-0.9c0,0.4,0,0.7,0,0.9c-1.3,0.3-2.5,0.6-3.8,0.9L20.3,26.7z M39.4,19.4h0.9
				c0,2.2-0.1,3.6-0.2,4.1h0.7v3.2c0,0.5,0.2,0.7,0.6,0.7h0.6c0.5,0,0.7-0.2,0.8-0.6c0.1-0.4,0.1-1,0.1-1.7c0.3,0.1,0.6,0.2,0.9,0.4
				c-0.1,0.7-0.1,1.2-0.2,1.6c-0.1,0.7-0.6,1.1-1.4,1.1h-1c-0.9,0-1.4-0.5-1.4-1.4v-2.5c-0.5,2-1.8,3.4-3.9,4.3
				c-0.2-0.2-0.4-0.5-0.6-0.8c2.4-0.9,3.7-2.7,3.9-5.3C39.3,21.8,39.4,20.7,39.4,19.4z M36.9,17.7h5.9v7.2h-0.9v-6.4h-4.1v6.4h-0.9
				V17.7z M32.2,20.3v-0.8H36v0.9c-0.4,0.7-0.8,1.4-1.3,2V23l0.5-0.5c0.6,0.5,1.1,1,1.5,1.5l-0.7,0.6c-0.4-0.5-0.9-0.9-1.4-1.5v5.4
				h-0.9v-5.1c-0.4,0.5-0.9,0.9-1.3,1.3c-0.1-0.3-0.2-0.6-0.3-1c1.2-1.1,2.2-2.2,2.8-3.5H32.2z M33.4,17.5l0.8-0.4
				c0.3,0.5,0.6,1,0.9,1.6l-0.9,0.4C33.9,18.5,33.6,17.9,33.4,17.5z M50,20h1.7l0.3-1.5h-2.5v-0.8h6.3v0.8H53L52.6,20h2.7v6.1h-0.9
				v-5.3h-3.5v5.3H50V20z M44.2,21.3H45v-3.1h0.8v3.1H47v-4.2h0.8V19h1.6v0.8h-1.6v1.6h1.8v0.8h-5.5V21.3z M52.2,21.6H53v1.8
				c0,0.9-0.1,1.7-0.3,2.3c1.2,0.7,2.3,1.4,3.2,2.1l-0.6,0.8c-1-0.8-2-1.5-3-2.1c0,0.1-0.1,0.2-0.2,0.2c-0.6,0.8-1.6,1.5-3,2
				c-0.2-0.2-0.4-0.5-0.6-0.8c1.4-0.5,2.3-1.1,2.8-1.7c0.5-0.6,0.8-1.6,0.8-2.8V21.6z M46.9,22.4h0.8v3c0.5-0.6,0.9-1.2,1.2-1.9
				l0.8,0.5c-1.1,2.1-2.8,3.6-5.1,4.7c-0.1-0.2-0.4-0.5-0.6-0.8c1.3-0.6,2.4-1.3,3.3-2.2h-0.5V22.4z M44.1,25.9
				c0.4-0.8,0.8-1.7,1.2-2.8l0.8,0.3c-0.4,1.1-0.8,2.1-1.2,3C44.6,26.2,44.4,26,44.1,25.9z M58.3,27.4h-0.9v-6.1h4.2v-1.6h-5.2v-0.9
				h5.5c-0.2-0.5-0.5-1-0.8-1.5l0.9-0.4c0.3,0.5,0.6,1,0.9,1.5L62,18.8h5.7v0.9h-5.2v1.6h4.3v4.4c0,1-0.5,1.5-1.4,1.5
				c-0.4,0-1,0-1.7,0c0-0.3-0.1-0.6-0.2-0.9c0.6,0,1.2,0.1,1.6,0.1c0.5,0,0.8-0.3,0.8-0.8v-3.3h-3.3v6.4h-0.9v-6.4h-3.3V27.4z
				 M77,18.6h-4.6v-0.8h6.2v0.9L74,21.5h5.3c-0.1,2.2-0.2,3.8-0.3,5c-0.1,1.2-0.7,1.8-1.7,1.8c-0.3,0-0.9,0-1.6,0
				c-0.1-0.4-0.1-0.7-0.2-1c0.5,0.1,1.1,0.1,1.6,0.1s0.9-0.3,0.9-1c0.1-1,0.2-2.3,0.2-4h-1.3c-0.3,2.6-1.6,4.7-3.6,6.2
				c-0.2-0.3-0.4-0.5-0.7-0.7c1.9-1.3,3.1-3.2,3.4-5.5h-1.5c-0.4,2-1.6,3.6-3.3,4.8c-0.2-0.2-0.4-0.5-0.6-0.7
				c1.6-1.1,2.6-2.5,3.1-4.2h-1.4v-0.9L77,18.6z M68.2,25.7c0.6-0.2,1.1-0.5,1.7-0.7v-4h-1.6v-0.8h1.6v-2.9h0.9v2.9h1.4v0.8h-1.4
				v3.7c0.4-0.2,0.9-0.4,1.3-0.6c0,0.3,0.1,0.6,0.1,0.9c-1.1,0.5-2.4,1.1-3.6,1.7L68.2,25.7z M80.2,27.3h1.4v-3.8h8.8v3.8h1.4v0.8
				H80.2V27.3z M84.8,21.3c1-1.2,1.8-2.7,2.4-4.3l0.9,0.3c-0.2,0.5-0.4,1-0.6,1.5h4.2v0.8H87c-0.5,0.9-1,1.6-1.5,2.3
				C85.3,21.7,85.1,21.5,84.8,21.3z M84.6,17.1v6.1h-0.9v-6.1H84.6z M89.5,24.3h-1.8v3h1.8V24.3z M82.5,27.3h1.7v-3h-1.7V27.3z
				 M85.1,27.3h1.7v-3h-1.7V27.3z M81.2,17.7h0.9v4.9h-0.9V17.7z M87.4,20.8l0.6-0.6c0.9,0.6,1.7,1.3,2.5,2l-0.7,0.7
				C89,22.1,88.2,21.4,87.4,20.8z M93.6,23.7c0.4,0.2,0.7,0.3,0.9,0.4c-0.5,2-0.9,3.4-1.1,4.3l-1-0.4C92.9,26.7,93.3,25.3,93.6,23.7
				z M93.2,17.3c0.5,0.4,1.1,0.9,1.8,1.6c-0.3,0.3-0.5,0.5-0.7,0.7c-0.6-0.6-1.1-1.2-1.7-1.7L93.2,17.3z M92.7,20.3
				c0.7,0.5,1.3,1.1,1.9,1.6c-0.2,0.2-0.4,0.5-0.7,0.7c-0.7-0.7-1.3-1.3-1.8-1.7L92.7,20.3z M102.5,17.1h0.9v10
				c0,0.9-0.4,1.3-1.3,1.3c-0.4,0-0.8,0-1.3,0c0-0.3-0.1-0.6-0.2-1c0.5,0.1,0.9,0.1,1.3,0.1c0.4,0,0.7-0.2,0.7-0.7V17.1z
				 M101.4,25.8h-0.8V18h0.8V25.8z M95.2,17.7h4.4v7.4h-0.8v-6.6H96v6.6h-0.8V17.7z M97,19.6h0.9v2.9c0,1.2-0.1,2.1-0.3,2.9
				c1,0.8,1.9,1.5,2.6,2.1l-0.6,0.7c-0.6-0.6-1.4-1.3-2.3-2c-0.5,1-1.4,1.8-2.6,2.5c-0.2-0.3-0.4-0.5-0.6-0.8c1.2-0.7,2-1.4,2.4-2.2
				c0.4-0.7,0.6-1.8,0.6-3.2V19.6z"/>
		</g>
	</g>
</g>
</svg>
