<?xml version="1.0" encoding="utf-8"?>
<!-- Generator: Adobe Illustrator 20.1.0, SVG Export Plug-In . SVG Version: 6.00 Build 0)  -->
<svg version="1.1" id="图层_1" xmlns="http://www.w3.org/2000/svg" xmlns:xlink="http://www.w3.org/1999/xlink" x="0px" y="0px"
	 viewBox="0 0 112 30" style="enable-background:new 0 0 112 30;" xml:space="preserve">
<style type="text/css">
	.st0{fill:#3DC0F0;}
	.st1{fill:#999999;}
</style>
<title>Artboard Copy 6</title>
<desc>Created with Sketch.</desc>
<g id="Page-1">
	<g id="Artboard-Copy-6">
		<g id="Group-17-Copy-2">
			<path id="mUserTracker" class="st0" d="M12.8,12.4h-3l2.3-5.5c0.2-0.5,0.3-0.7,0.2-0.8C12.4,6,12.2,6,11.8,6h-0.9l-2.7,6.4H5
				L7.7,6H6.1l-2.7,6.4h-3l3.8-9h8.5c1.9,0,2.9,0.6,2.9,1.8c0,0.5-0.1,1-0.4,1.7L12.8,12.4z M26.5,7.7c-0.7,1.5-1.4,2.6-2.1,3.2
				c-1.2,1-2.9,1.5-4.9,1.5c-2.4,0-3.7-0.6-4-1.9c0-0.1,0-0.2,0-0.4c0-0.6,0.2-1.4,0.7-2.4l3.1-7.4h3.1l-3.1,7.3
				c-0.3,0.8-0.5,1.3-0.5,1.5c0,0.5,0.5,0.7,1.5,0.7c0.8,0,1.5-0.2,2-0.5c0.5-0.4,0.9-1.1,1.4-2.1l3-7h3.1L26.5,7.7z M36.8,5.9h-4.4
				c-0.6,0-0.9,0.1-1.1,0.4c0,0.1,0,0.2,0,0.3c0,0,0.1,0,0.3,0h2c1.6,0,2.4,0.5,2.4,1.6c0,0.4-0.1,0.8-0.3,1.2
				c-0.4,0.8-0.8,1.5-1.4,2c-0.7,0.6-1.5,0.9-2.3,0.9h-6.1l1-2.5h4.8c0.6,0,1-0.2,1.2-0.7V9c0-0.1-0.2-0.1-0.5-0.1h-1.9
				c-0.1,0-0.2,0-0.3,0s-0.2,0-0.2,0c-1.4,0-2.1-0.5-2.1-1.5c0-0.4,0.1-0.8,0.3-1.3c0.8-1.9,2.2-2.8,4.3-2.8h5.2L36.8,5.9z
				 M46.2,5.9h-3.1c-0.5,0-0.8,0-1.1,0.1s-0.6,0.3-0.9,0.7h4.7l-1.1,2.5h-4.8c-0.1,0.3-0.1,0.5-0.1,0.6l0,0C40,9.9,40.3,9.9,41,9.9
				h3.5l-1,2.5H40c-2.1,0-3.2-0.8-3.2-2.5c0-0.6,0.2-1.3,0.5-2.1c1.2-2.9,3.3-4.3,6.2-4.3h3.7L46.2,5.9z M53.4,7.6h-2.9
				c0.1-0.2,0.2-0.6,0.4-1C51,6.3,51.1,6,51.2,5.8c-0.1,0-0.1,0-0.2,0h-0.1h-0.5l-2.8,6.7h-3l3.8-9h3.9c1.4,0,2,0.4,2,1.3
				c0,0.4-0.1,1-0.4,1.6L53.4,7.6z M63.1,3.1h-3.6l-3.9,9.2h-3.3l3.9-9.2h-3.5l1.2-2.7h10.4L63.1,3.1z M65.8,7.6h-2.9
				c0.1-0.2,0.2-0.6,0.4-1c0.1-0.3,0.2-0.6,0.3-0.8c-0.1,0-0.1,0-0.2,0h-0.1h-0.5L60,12.4h-3l3.8-9h3.9c1.4,0,2,0.4,2,1.3
				c0,0.4-0.1,1-0.4,1.6L65.8,7.6z M73.3,12.4h-6c-1.4,0-2.1-0.6-2.1-1.7c0-0.4,0.1-0.8,0.3-1.3c0.4-1,1.1-1.8,1.9-2.2
				C68,6.8,69,6.6,70.1,6.6h2.6c0.1-0.3,0.1-0.5,0.1-0.6c-0.1-0.1-0.5-0.2-1.1-0.2h-4.2l1.1-2.5h4.6c1,0,1.7,0.1,2.1,0.4
				c0.5,0.5,0.7,1,0.7,1.6c0,0.5-0.1,1.1-0.4,1.7L73.3,12.4z M69.8,9c-0.4,0-0.7,0-0.8,0.1c-0.2,0.1-0.4,0.3-0.5,0.5
				c0,0,0,0.1-0.1,0.1s0,0.1,0,0.1c0.1,0.1,0.2,0.1,0.5,0.1h2.4l0.4-1L69.8,9L69.8,9z M85.2,5.9h-3c-0.7,0-1.3,0.2-1.8,0.5
				C80,6.7,79.6,7.2,79.3,8C79.1,8.5,79,8.8,79,9.1c0,0.2,0,0.3,0.1,0.4c0.2,0.2,0.6,0.3,1.2,0.3h3.1l-1.1,2.5h-3.1
				c-1.3,0-2.3-0.3-2.9-1c-0.4-0.4-0.5-0.9-0.5-1.6c0-0.6,0.2-1.3,0.5-2.1c1.2-2.9,3.4-4.4,6.4-4.4h3.5L85.2,5.9z M90.9,7.9l2.1,4.5
				h-3.8l-1.4-3.3l-1.4,3.3h-3l5.1-12h3L89,6.5l4-3.1h4L90.9,7.9z M103.4,5.9h-3.1c-0.5,0-0.8,0-1.1,0.1c-0.3,0.1-0.6,0.3-0.9,0.7
				h4.7l-1,2.4h-4.8c-0.1,0.3-0.1,0.5-0.1,0.6l0,0c0.1,0.1,0.5,0.2,1.1,0.2h3.5l-1,2.5h-3.4c-2.1,0-3.2-0.8-3.2-2.5
				c0-0.6,0.2-1.3,0.5-2.1c1.2-2.9,3.3-4.3,6.2-4.3h3.7L103.4,5.9z M110.7,7.6h-2.9c0.1-0.2,0.2-0.6,0.4-1c0.1-0.3,0.2-0.6,0.3-0.8
				c-0.1,0-0.1,0-0.2,0h-0.1h-0.5l-2.8,6.7h-3l3.8-9h3.9c1.4,0,2,0.4,2,1.3c0,0.4-0.1,1-0.4,1.6L110.7,7.6z"/>
			<path id="移动用户行为监测" class="st1" d="M12.2,25.7c1.3-0.9,2.3-2,3.1-3.3c-0.7,0.4-1.5,0.7-2.4,1
				c-0.1-0.2-0.3-0.5-0.4-0.8c1.2-0.3,2.2-0.8,3.1-1.3c-0.3-0.3-0.8-0.7-1.3-1.2l0.5-0.6c0.6,0.4,1.1,0.9,1.5,1.3
				c0.7-0.5,1.4-1.1,2-2h-3.5c-0.5,0.6-1.1,1.3-1.8,1.9c-0.2-0.2-0.4-0.4-0.6-0.7c1.1-0.9,2-2,2.6-3.2l0.8,0.3
				c-0.1,0.3-0.3,0.5-0.4,0.8h3.9v0.8c-0.7,1.3-1.9,2.4-3.6,3.3l0.6,0.2c-0.1,0.2-0.3,0.4-0.4,0.6h3.7v0.9c-1,2.4-3.4,4-7.1,4.9
				c-0.1-0.3-0.3-0.6-0.4-0.8c1.2-0.3,2.4-0.7,3.5-1.2c-0.3-0.4-0.7-0.8-1.2-1.2l0.6-0.6c0.5,0.5,1,0.9,1.4,1.3
				c1-0.7,1.7-1.5,2.3-2.4h-3.4c-0.7,0.9-1.6,1.8-2.6,2.6C12.6,26.2,12.4,26,12.2,25.7z M8.1,25.4c0.8-1.1,1.4-2.4,1.9-3.9H8.2v-0.8
				h1.9v-1.8c-0.5,0-1,0.1-1.6,0.1c0-0.3-0.1-0.6-0.2-0.9c1.6-0.1,3-0.2,4.2-0.4l0.2,0.9c-0.5,0.1-1.1,0.1-1.7,0.2v1.9h1.6v0.8H11
				V23l0.4-0.4c0.5,0.4,1,0.8,1.5,1.3l-0.6,0.7c-0.4-0.4-0.8-0.8-1.3-1.2v5.3h-0.9v-5.2c-0.4,1.1-1,2.1-1.6,3
				C8.4,26.1,8.2,25.7,8.1,25.4z M25.6,19.5h1.7c0-0.8,0-1.6,0-2.4h1c0,0.8,0,1.6,0,2.4h3.2c-0.1,3-0.1,5.3-0.2,7.1
				c-0.1,1.1-0.6,1.7-1.5,1.7c-0.5,0-1,0-1.6,0c-0.1-0.3-0.1-0.7-0.2-1c0.5,0.1,1,0.1,1.5,0.1c0.6,0,0.9-0.3,0.9-1
				c0.1-1.9,0.2-3.9,0.2-6h-2.2c0,0.3,0,0.7,0,1c0,3.1-1,5.5-2.8,7.3c-0.2-0.3-0.5-0.5-0.7-0.8c1.6-1.5,2.5-3.6,2.6-6.5
				c0-0.3,0-0.6,0-1h-1.7v-0.9H25.6z M24.4,23.5c0.5,1.1,0.9,2.1,1.4,3.2c-0.3,0.1-0.6,0.3-0.9,0.4l-0.2-0.4
				c-1.5,0.1-2.8,0.3-4.1,0.4l-0.4-0.9c0.3-0.2,0.6-0.5,0.8-0.9c0.4-0.8,0.8-1.7,1.2-2.9h-2v-0.9h5.7v0.9h-2.7
				c-0.7,1.7-1.2,3-1.7,3.9c0.9-0.1,1.9-0.2,2.9-0.3c-0.3-0.7-0.5-1.3-0.8-2L24.4,23.5z M20.8,18h4.7v0.9h-4.7V18z M37.8,28.4v-3.7
				h-3.4c-0.1,1.6-0.6,3-1.4,4c-0.2-0.3-0.4-0.5-0.7-0.8c0.5-0.7,0.9-1.5,1-2.4c0.2-0.8,0.3-2,0.3-3.6v-4.2h9.6V27
				c0,0.9-0.4,1.4-1.3,1.4c-0.5,0-1.1,0-1.8,0c0-0.3-0.1-0.6-0.2-1c0.7,0,1.2,0.1,1.7,0.1s0.7-0.2,0.7-0.7v-2.2h-3.4v3.7h-1.1V28.4z
				 M38.7,23.8h3.4v-2.2h-3.4V23.8z M42.2,18.6h-3.4v2.2h3.4V18.6z M34.4,23.8h3.3v-2.2h-3.3C34.5,22.4,34.5,23.1,34.4,23.8z
				 M34.5,18.6v2.2h3.3v-2.2H34.5z M49.1,17.4l0.8-0.5c0.4,0.4,0.7,0.9,1.1,1.5l-0.6,0.4h4.4V24h-0.9v-0.6h-7.4
				c-0.1,2.3-0.7,4-1.7,5.4c-0.2-0.3-0.4-0.5-0.7-0.8c1-1.2,1.5-3,1.5-5.5v-3.7h4.5C49.8,18.3,49.5,17.8,49.1,17.4z M46.5,19.6v2.9
				h7.4v-2.9H46.5z M60.4,21.4h7.4v0.9h-2.3v4.6c0,1-0.5,1.5-1.5,1.5c-0.7,0-1.3,0-2,0c0-0.3-0.1-0.7-0.2-1.1
				c0.6,0.1,1.2,0.1,1.8,0.1c0.5,0,0.8-0.3,0.8-0.8v-4.3h-4.1L60.4,21.4L60.4,21.4z M56.2,24c1.2-1,2.3-2.4,3.3-4.2l0.8,0.5
				c-0.4,0.7-0.8,1.3-1.3,2v6.2h-1v-5c-0.5,0.5-1,1-1.5,1.5C56.5,24.7,56.3,24.3,56.2,24z M61.1,17.9h6.1v0.9h-6.1V17.9z M56.2,20.3
				c1.2-1,2.2-2.1,3-3.4l0.8,0.5c-0.9,1.4-2,2.6-3.4,3.7C56.6,20.9,56.4,20.6,56.2,20.3z M68.7,20.1h4.4c0.1-1,0.2-2,0.2-3.1h1
				c0,1.2-0.1,2.2-0.2,3.1h5c0,2.4-0.1,4.4-0.2,6c-0.1,1.5-0.9,2.2-2.3,2.2c-0.6,0-1.3,0-2.2-0.1c0-0.3-0.1-0.7-0.2-1.1
				c0.7,0.1,1.5,0.2,2.2,0.2c0.9,0,1.4-0.5,1.5-1.4c0.1-1.5,0.2-3.2,0.2-4.9H74c-0.6,3.4-2.2,6-4.8,7.7c-0.2-0.3-0.5-0.6-0.7-0.9
				c2.4-1.4,3.9-3.7,4.5-6.8h-4.3V20.1z M74.2,23.1l0.6-0.6c0.8,0.7,1.4,1.4,2,2.1l-0.7,0.7C75.6,24.5,74.9,23.8,74.2,23.1z
				 M69.5,17.8l0.6-0.6c0.6,0.6,1.3,1.1,1.9,1.7l-0.7,0.7C70.7,19,70.1,18.3,69.5,17.8z M80.2,27.3h1.4v-3.8h8.8v3.8h1.4v0.8H80.2
				V27.3z M84.8,21.3c1-1.2,1.8-2.7,2.4-4.3l0.9,0.3c-0.2,0.5-0.4,1-0.6,1.5h4.2v0.8H87c-0.5,0.9-1,1.6-1.5,2.3
				C85.3,21.7,85.1,21.5,84.8,21.3z M84.6,17.1v6.1h-0.9v-6.1H84.6z M89.5,24.3h-1.8v3h1.8V24.3z M82.5,27.3h1.7v-3h-1.7V27.3z
				 M85.1,27.3h1.7v-3h-1.7V27.3z M81.2,17.7h0.9v4.9h-0.9V17.7z M87.4,20.8l0.6-0.6c0.9,0.6,1.7,1.3,2.5,2l-0.7,0.7
				C89,22.1,88.2,21.4,87.4,20.8z M93.6,23.7c0.4,0.2,0.7,0.3,0.9,0.4c-0.5,2-0.9,3.4-1.1,4.3l-1-0.4C92.9,26.7,93.3,25.3,93.6,23.7
				z M93.2,17.3c0.5,0.4,1.1,0.9,1.8,1.6c-0.3,0.3-0.5,0.5-0.7,0.7c-0.6-0.6-1.1-1.2-1.7-1.7L93.2,17.3z M92.7,20.3
				c0.7,0.5,1.3,1.1,1.9,1.6c-0.2,0.2-0.4,0.5-0.7,0.7c-0.7-0.7-1.3-1.3-1.8-1.7L92.7,20.3z M102.5,17.1h0.9v10
				c0,0.9-0.4,1.3-1.3,1.3c-0.4,0-0.8,0-1.3,0c0-0.3-0.1-0.6-0.2-1c0.5,0.1,0.9,0.1,1.3,0.1s0.7-0.2,0.7-0.7L102.5,17.1L102.5,17.1z
				 M101.4,25.8h-0.8V18h0.8V25.8z M95.2,17.7h4.4v7.4h-0.8v-6.6H96v6.6h-0.8V17.7z M97,19.6h0.9v2.9c0,1.2-0.1,2.1-0.3,2.9
				c1,0.8,1.9,1.5,2.6,2.1l-0.6,0.7c-0.6-0.6-1.4-1.3-2.3-2c-0.5,1-1.4,1.8-2.6,2.5c-0.2-0.3-0.4-0.5-0.6-0.8c1.2-0.7,2-1.4,2.4-2.2
				c0.4-0.7,0.6-1.8,0.6-3.2L97,19.6L97,19.6z"/>
		</g>
	</g>
</g>
</svg>
