<?xml version="1.0" encoding="utf-8"?>
<!-- Generator: Adobe Illustrator 20.1.0, SVG Export Plug-In . SVG Version: 6.00 Build 0)  -->
<svg version="1.1" id="图层_1" xmlns="http://www.w3.org/2000/svg" xmlns:xlink="http://www.w3.org/1999/xlink" x="0px" y="0px"
	 viewBox="0 0 120 30" style="enable-background:new 0 0 120 30;" xml:space="preserve">
<style type="text/css">
	.st0{fill:#999999;}
	.st1{fill:#69C72B;}
</style>
<title>Artboard Copy</title>
<desc>Created with Sketch.</desc>
<g id="Page-1">
	<g id="Artboard-Copy">
		<g id="Page-1-Copy">
			<path id="Fill-1" class="st0" d="M116.5,26.4h0.8v-7.8h-0.8V26.4z M118.4,17.7h0.9v10c0,0.9-0.4,1.3-1.3,1.3c-0.4,0-0.8,0-1.3,0
				c0-0.3-0.1-0.6-0.2-1c0.5,0.1,0.9,0.1,1.3,0.1c0.4,0,0.7-0.2,0.7-0.7V17.7z M111.1,18.3h4.4v7.4h-0.8v-6.6h-2.7v6.6h-0.8V18.3z
				 M112.9,20.2h0.9v2.9c0,1.2-0.1,2.1-0.3,2.9c1,0.8,1.9,1.5,2.6,2.1l-0.6,0.7c-0.6-0.6-1.4-1.3-2.3-2c-0.5,1-1.4,1.8-2.6,2.5
				c-0.2-0.2-0.4-0.5-0.6-0.8c1.2-0.7,2-1.4,2.4-2.2c0.4-0.7,0.6-1.8,0.6-3.2V20.2z M109.1,17.9c0.5,0.4,1.1,0.9,1.8,1.6
				c-0.3,0.2-0.5,0.5-0.7,0.7c-0.6-0.6-1.1-1.2-1.7-1.7L109.1,17.9z M108.4,28.6c0.5-1.3,0.9-2.7,1.2-4.3c0.4,0.2,0.7,0.3,0.9,0.4
				c-0.5,2-0.9,3.4-1.1,4.3L108.4,28.6z M108.6,20.9c0.7,0.5,1.3,1.1,1.9,1.6c-0.2,0.2-0.4,0.5-0.7,0.7c-0.7-0.7-1.3-1.3-1.8-1.7
				L108.6,20.9z M103.6,27.9h1.8v-3h-1.8V27.9z M105.8,23.5c-0.9-0.8-1.7-1.5-2.5-2.1l0.6-0.6c0.9,0.6,1.7,1.3,2.5,2L105.8,23.5z
				 M101,27.9h1.7v-3H101V27.9z M101.4,22.5c-0.2-0.2-0.5-0.4-0.7-0.6c1-1.2,1.8-2.7,2.4-4.3l0.9,0.3c-0.2,0.5-0.4,1-0.6,1.5h4.2
				v0.8h-4.6C102.5,21,102,21.8,101.4,22.5L101.4,22.5z M99.6,23.7h0.9v-6.1h-0.9V23.7z M98.4,27.9h1.7v-3h-1.7V27.9z M97.1,23.2H98
				v-4.9h-0.9V23.2z M96.2,27.9h1.4v-3.8h8.8v3.8h1.4v0.8H96.2V27.9z M92.9,19.2h-4.6v-0.8h6.2v0.9L90,22.1h5.3
				c-0.1,2.2-0.2,3.8-0.3,5c-0.1,1.2-0.7,1.8-1.7,1.8c-0.3,0-0.9,0-1.6,0c-0.1-0.4-0.1-0.7-0.2-1c0.5,0.1,1.1,0.1,1.6,0.1
				s0.9-0.3,0.9-1c0.1-1,0.2-2.3,0.2-4h-1.3c-0.3,2.6-1.6,4.7-3.6,6.2c-0.2-0.3-0.4-0.5-0.7-0.7c1.9-1.3,3.1-3.2,3.4-5.5h-1.5
				c-0.4,2-1.6,3.6-3.3,4.8c-0.2-0.2-0.4-0.5-0.6-0.7c1.6-1.1,2.6-2.5,3.1-4.2h-1.4v-0.9L92.9,19.2z M84.1,26.3
				c0.6-0.2,1.1-0.5,1.7-0.7v-4h-1.6v-0.8h1.6v-2.9h0.9v2.9h1.4v0.8h-1.4v3.7c0.4-0.2,0.9-0.4,1.3-0.6c0,0.3,0.1,0.6,0.1,0.9
				c-1.1,0.5-2.4,1.1-3.6,1.7L84.1,26.3z M74.2,28h-0.9v-6.1h4.2v-1.6h-5.2v-0.9h5.5c-0.2-0.5-0.5-1-0.8-1.5l0.9-0.4
				c0.3,0.5,0.6,1,0.9,1.5l-0.8,0.4h5.7v0.9h-5.2v1.6h4.3v4.4c0,1-0.5,1.5-1.4,1.5c-0.4,0-1,0-1.7,0c0-0.3-0.1-0.6-0.2-0.9
				c0.6,0,1.2,0.1,1.6,0.1c0.5,0,0.8-0.3,0.8-0.8v-3.3h-3.3v6.4h-0.9v-6.4h-3.3V28z M67.4,20.4c1.2,0.5,2.4,1.2,3.6,1.8l-0.5,0.8
				c-1-0.6-2.2-1.2-3.6-1.9L67.4,20.4z M63,27.8h5.7v-2H63V27.8z M69.2,25c-1.4-0.7-2.5-1.5-3.4-2.4c-1,0.9-2,1.8-3.1,2.4H69.2z
				 M60.7,22.4c1.3-0.6,2.5-1.2,3.6-2l0.6,0.8c-1.4,0.9-2.6,1.6-3.6,2C61.1,22.9,60.9,22.7,60.7,22.4L60.7,22.4z M60.6,19h5
				c-0.2-0.3-0.4-0.6-0.6-1l0.9-0.4c0.3,0.4,0.6,0.9,0.8,1.4h4.5v2h-0.9v-1.1h-8.7v1.2h-0.9V19z M66.6,21.7
				c-0.1,0.1-0.1,0.1-0.2,0.2c1.5,1.4,3.3,2.4,5.4,3c-0.3,0.4-0.4,0.7-0.6,1c-0.5-0.2-1-0.4-1.5-0.6v3.9h-0.9v-0.5H63v0.5h-0.9v-3.8
				c-0.5,0.3-1,0.5-1.6,0.7c-0.1-0.3-0.3-0.6-0.5-0.8c2.4-1,4.3-2.3,5.6-3.7L66.6,21.7z M49.1,19.8h4.3v-2h1v2h4.3v7.7
				c0,1-0.5,1.5-1.5,1.5c-0.5,0-1.1,0-1.9,0c0-0.3-0.1-0.6-0.2-1C55.9,28,56.5,28,57,28c0.5,0,0.7-0.2,0.7-0.7v-6.6h-3.4
				c0,0.7-0.1,1.3-0.3,1.9c1.4,1.1,2.5,2.1,3.4,2.9l-0.7,0.8c-0.8-0.9-1.8-1.9-2.9-2.8c-0.5,1.1-1.5,2.1-3,3
				c-0.3-0.5-0.5-0.7-0.7-0.8c1.3-0.7,2.1-1.4,2.6-2.2c0.4-0.6,0.6-1.5,0.7-2.7h-3.4v8.4h-0.9V19.8z M41.9,20.6h1.7l0.3-1.5h-2.5
				v-0.8h6.3v0.8h-2.8l-0.4,1.5h2.7v6.1h-0.9v-5.3h-3.5v5.3h-0.9V20.6z M44.1,22.2H45V24c0,0.9-0.1,1.7-0.3,2.3
				c1.2,0.7,2.3,1.4,3.2,2.1l-0.6,0.8c-1-0.8-2-1.5-3-2.1c0,0.1-0.1,0.2-0.2,0.2c-0.6,0.8-1.6,1.5-3,2c-0.2-0.2-0.4-0.5-0.6-0.8
				c1.4-0.5,2.3-1.1,2.8-1.7c0.5-0.6,0.8-1.6,0.8-2.8V22.2z M36.1,21.9h0.8v-3.1h0.8v3.1h1.2v-4.2h0.8v1.8h1.6v0.8h-1.6v1.6h1.8v0.8
				h-5.5V21.9z M38.8,23h0.8v3c0.5-0.6,0.9-1.2,1.2-1.9l0.8,0.5c-1.1,2.1-2.8,3.6-5.1,4.7c-0.1-0.2-0.4-0.5-0.6-0.8
				c1.3-0.6,2.4-1.3,3.3-2.2h-0.5V23z M36.8,26.9c-0.2-0.1-0.5-0.3-0.8-0.4c0.4-0.8,0.8-1.7,1.2-2.8L38,24
				C37.6,25.1,37.2,26.1,36.8,26.9L36.8,26.9z M28.8,18.3h5.9v7.2h-0.9v-6.4h-4.1v6.4h-0.9V18.3z M31.2,23.2c0-0.9,0.1-1.9,0.1-3.2
				h0.9c0,2.2-0.1,3.6-0.2,4.1h0.7v3.2c0,0.5,0.2,0.7,0.6,0.7H34c0.5,0,0.7-0.2,0.8-0.6c0.1-0.4,0.1-1,0.1-1.7
				c0.3,0.1,0.6,0.2,0.9,0.4c-0.1,0.7-0.1,1.2-0.2,1.6c-0.1,0.7-0.6,1.1-1.4,1.1h-1c-0.9,0-1.4-0.5-1.4-1.4V25
				c-0.5,2-1.8,3.4-3.9,4.3c-0.2-0.2-0.4-0.5-0.6-0.8C29.7,27.6,31,25.8,31.2,23.2L31.2,23.2z M26.2,19.7c-0.3-0.6-0.6-1.2-0.9-1.7
				l0.8-0.4c0.3,0.5,0.6,1,0.9,1.6L26.2,19.7z M24.1,20.9v-0.8h3.8V21c-0.4,0.7-0.8,1.4-1.3,2v0.6l0.5-0.5c0.6,0.5,1.1,1,1.5,1.5
				L28,25.2c-0.4-0.5-0.9-0.9-1.4-1.5v5.4h-0.9v-5.1c-0.4,0.5-0.9,0.9-1.3,1.3c-0.1-0.3-0.2-0.6-0.3-1c1.2-1.1,2.2-2.2,2.8-3.5H24.1
				z M17.5,20.1h1.7c0-0.8,0-1.6,0-2.4h1c0,0.8,0,1.6,0,2.4h3.2c-0.1,3-0.1,5.3-0.2,7.1c-0.1,1.1-0.6,1.7-1.5,1.7c-0.5,0-1,0-1.6,0
				c-0.1-0.3-0.1-0.7-0.2-1c0.5,0.1,1,0.1,1.5,0.1c0.6,0,0.9-0.3,0.9-1c0.1-1.9,0.2-3.9,0.2-6h-2.2c0,0.3,0,0.7,0,1
				c0,3.1-1,5.5-2.8,7.3c-0.2-0.3-0.5-0.5-0.7-0.8c1.6-1.5,2.5-3.6,2.6-6.5c0-0.3,0-0.6,0-1h-1.7V20.1z M12.7,19.5h4.7v-0.9h-4.7
				V19.5z M16.3,24.1c0.5,1.1,0.9,2.1,1.4,3.2c-0.3,0.1-0.6,0.3-0.9,0.4l-0.2-0.4c-1.5,0.1-2.8,0.3-4.1,0.4l-0.4-0.9
				c0.3-0.2,0.6-0.5,0.8-0.9c0.4-0.8,0.8-1.7,1.2-2.9h-2v-0.9h5.7v0.9h-2.7c-0.7,1.7-1.2,3-1.7,3.9c0.9-0.1,1.9-0.2,2.9-0.3
				c-0.3-0.7-0.5-1.3-0.8-2L16.3,24.1z M4.7,27c-0.1-0.2-0.3-0.5-0.5-0.7c1.2-0.9,2.3-2,3.1-3.3c-0.7,0.4-1.5,0.7-2.4,1
				c-0.1-0.2-0.3-0.5-0.4-0.8c1.2-0.3,2.2-0.8,3.1-1.3c-0.3-0.3-0.8-0.7-1.3-1.2l0.5-0.6c0.6,0.4,1.1,0.9,1.5,1.3
				c0.7-0.5,1.4-1.1,2-2H6.7c-0.5,0.6-1.1,1.3-1.8,1.9c-0.2-0.2-0.4-0.4-0.6-0.7c1.1-0.9,2-2,2.6-3.2l0.8,0.3
				c-0.1,0.3-0.3,0.5-0.4,0.8h3.9v0.8c-0.7,1.3-1.9,2.4-3.6,3.3L8.2,23c-0.1,0.2-0.3,0.4-0.4,0.6h3.7v0.9c-1,2.4-3.4,4-7.1,4.9
				C4.3,29,4.2,28.8,4,28.6c1.2-0.3,2.4-0.7,3.5-1.2c-0.3-0.4-0.7-0.8-1.2-1.2l0.6-0.6c0.5,0.5,1,0.9,1.4,1.3c1-0.7,1.8-1.5,2.3-2.4
				H7.2C6.5,25.4,5.7,26.2,4.7,27L4.7,27z M0.4,27c-0.1-0.3-0.3-0.7-0.4-1c0.8-1.1,1.4-2.4,1.9-3.9H0.2v-0.8H2v-1.8
				c-0.5,0-1,0.1-1.6,0.1c0-0.3-0.1-0.5-0.2-0.9c1.6-0.1,3-0.2,4.2-0.4l0.2,0.9c-0.5,0.1-1.1,0.1-1.7,0.2v1.9h1.6v0.8H2.9v1.5
				l0.4-0.4c0.5,0.4,1,0.8,1.5,1.3l-0.6,0.7c-0.4-0.4-0.8-0.8-1.3-1.2v5.3H2v-5.2C1.6,25.2,1.1,26.1,0.4,27L0.4,27z"/>
			<path id="Fill-3" class="st1" d="M12.6,3H4.1l-3.8,9h3L6,5.6h1.7L4.9,12H8l2.7-6.4h0.9c0.4,0,0.6,0,0.6,0.1c0,0.1,0,0.4-0.2,0.8
				L9.7,12h3L15,6.6c0.3-0.7,0.4-1.2,0.4-1.7C15.5,3.6,14.5,3,12.6,3"/>
			<polygon id="Fill-4" class="st1" points="26.1,0 19.7,7.6 19.9,0 16.5,0 16.5,12 19.5,12 29.5,0 			"/>
			<polygon id="Fill-5" class="st1" points="33.5,0 30.4,0 29.3,2.6 32.4,2.6 			"/>
			<polygon id="Fill-6" class="st1" points="28.9,3.6 25.3,12 28.4,12 31.9,3.6 			"/>
			<path id="Fill-7" class="st1" d="M36.4,9.5h-1c-0.8,0-1.3-0.1-1.4-0.4c-0.1-0.2,0-0.6,0.2-1.2C34.6,7,35,6.4,35.5,6
				c0.4-0.3,1.1-0.5,2-0.5H38L36.4,9.5z M40.4,0l-1.3,3h-1.7c-1.4,0-2.6,0.4-3.7,1.2c-1,0.8-1.8,1.8-2.4,3.2c-0.3,0.8-0.5,1.4-0.5,2
				c0,0.6,0.2,1.2,0.6,1.6c0.5,0.6,1.4,1,2.5,1h4.4l5.1-12H40.4z"/>
			<path id="Fill-8" class="st1" d="M46.2,5.6c0.3-0.1,0.6-0.1,1.1-0.1h3.1L51.4,3h-3.7c-2.9,0-5,1.4-6.2,4.3
				C41.2,8.1,41,8.8,41,9.4c0,1.7,1.1,2.5,3.2,2.5h3.4l1-2.5h-3.5c-0.7,0-1-0.1-1.1-0.2c0,0,0,0,0,0c0-0.1,0-0.3,0.1-0.6H49l1.1-2.5
				h-4.7C45.6,5.9,45.9,5.7,46.2,5.6"/>
			<path id="Fill-9" class="st1" d="M57.1,7.4C56.9,8,56.5,8.5,56,8.9c-0.5,0.5-1.1,0.7-1.7,0.7c-0.6,0-0.9-0.3-0.9-0.9
				c0-0.3,0.1-0.6,0.2-1c0.3-0.7,0.8-1.3,1.4-1.8c0.5-0.3,1-0.5,1.4-0.5c0.6,0,0.9,0.3,0.9,0.9C57.4,6.6,57.3,6.9,57.1,7.4
				 M60.6,5.6c0-0.7-0.2-1.3-0.7-1.8c-0.6-0.6-1.5-0.9-2.7-0.9c-1.2,0-2.2,0.3-3.3,0.8c-1.4,0.8-2.5,2-3.2,3.7
				c-0.3,0.8-0.5,1.5-0.5,2.1c0,0.5,0.1,1,0.4,1.4c0.5,0.9,1.5,1.3,3,1.3c1.4,0,2.7-0.4,3.9-1.3c1.1-0.8,2-1.9,2.6-3.2
				C60.4,6.9,60.6,6.2,60.6,5.6"/>
			<polygon id="Fill-10" class="st1" points="70.2,2.8 71.4,0 61,0 59.8,2.8 63.4,2.8 59.5,12 62.7,12 66.7,2.8 			"/>
			<path id="Fill-11" class="st1" d="M70,7.2h2.9l0.5-1.3c0.3-0.7,0.4-1.2,0.4-1.6c0-0.9-0.7-1.3-2-1.3H68l-3.8,9h3l2.8-6.7l0.6,0
				h0.1h0.2c-0.1,0.2-0.2,0.5-0.3,0.8C70.2,6.6,70.1,7,70,7.2"/>
			<path id="Fill-12" class="st1" d="M78.4,9.6H76c-0.3,0-0.4,0-0.5-0.1c0,0,0,0,0-0.1c0,0,0-0.1,0.1-0.1c0.1-0.3,0.3-0.5,0.5-0.5
				c0.2-0.1,0.4-0.1,0.8-0.1h1.9L78.4,9.6z M82.4,3.4C82,3.1,81.3,3,80.3,3h-4.6l-1.1,2.5h4.2c0.6,0,1,0.1,1.1,0.2
				c0,0.1,0,0.3-0.1,0.6h-2.6c-1.2,0-2.1,0.2-2.8,0.6C73.6,7.3,73,8,72.6,9c-0.2,0.5-0.3,0.9-0.3,1.3c0,1.1,0.7,1.7,2.1,1.7h6
				l2.3-5.4C83,6,83.1,5.4,83.1,4.9C83.1,4.3,82.9,3.8,82.4,3.4L82.4,3.4z"/>
			<path id="Fill-13" class="st1" d="M87.6,9.5c-0.7,0-1.1-0.1-1.2-0.3c-0.1-0.1-0.1-0.2-0.1-0.4c0-0.3,0.1-0.7,0.3-1.1
				c0.3-0.7,0.7-1.2,1.1-1.6c0.5-0.4,1-0.5,1.8-0.5h3L93.4,3h-3.5c-3,0-5.1,1.5-6.4,4.4c-0.3,0.8-0.5,1.5-0.5,2.1
				c0,0.6,0.2,1.1,0.5,1.6c0.6,0.7,1.5,1,2.9,1h3.1l1.1-2.5H87.6z"/>
			<polygon id="Fill-14" class="st1" points="104.2,3 100.2,3 96.1,6.1 98.7,0 95.7,0 90.6,12 93.6,12 95,8.7 96.4,12 100.1,12 
				98.1,7.5 			"/>
			<path id="Fill-15" class="st1" d="M104.2,9.4C104.2,9.3,104.2,9.3,104.2,9.4c0-0.1,0-0.3,0.1-0.6h4.8l1.1-2.5h-4.7
				c0.3-0.3,0.6-0.5,0.9-0.7c0.3-0.1,0.6-0.1,1.1-0.1h3.1l1.1-2.5h-3.7c-2.9,0-5,1.4-6.2,4.3c-0.3,0.8-0.5,1.5-0.5,2.1
				c0,1.7,1.1,2.5,3.2,2.5h3.4l1-2.5h-3.5C104.7,9.5,104.3,9.5,104.2,9.4"/>
			<path id="Fill-16" class="st1" d="M116.8,3h-3.9l-3.8,9h3l2.8-6.7l0.6,0h0.1h0.2c-0.1,0.2-0.2,0.5-0.3,0.8
				c-0.2,0.5-0.4,0.8-0.4,1h2.9l0.5-1.3c0.3-0.7,0.4-1.2,0.4-1.6C118.8,3.4,118.1,3,116.8,3"/>
		</g>
	</g>
</g>
</svg>
