<svg xmlns="http://www.w3.org/2000/svg" viewBox="0 0 106.6 28.8"><defs><style>.cls-1{fill:#3dc0f0;}.cls-2{fill:#999;}</style></defs><title>ott</title><g id="图层_2" data-name="图层 2"><g id="图层_1-2" data-name="图层 1"><g id="Page-1"><g id="out"><path id="oUserTracker" class="cls-1" d="M3.3,12.3A3.2,3.2,0,0,1,.3,11,4,4,0,0,1,0,9.5,6.32,6.32,0,0,1,.5,7.4,7.34,7.34,0,0,1,3.7,3.7,7.31,7.31,0,0,1,7,2.9a3.83,3.83,0,0,1,2.7.9,2.41,2.41,0,0,1,.7,1.8,6.32,6.32,0,0,1-.5,2.1,6.87,6.87,0,0,1-2.6,3.2A6.49,6.49,0,0,1,3.3,12.3ZM6.2,5.5A3,3,0,0,0,4.8,6,3.68,3.68,0,0,0,3.4,7.8a2,2,0,0,0-.2,1,.8.8,0,0,0,.9.9A2.29,2.29,0,0,0,5.7,9,3.09,3.09,0,0,0,6.8,7.4a2.61,2.61,0,0,0,.3-1.1C7.2,5.8,6.8,5.5,6.2,5.5ZM21.5,7.4a9.77,9.77,0,0,1-2.1,3.2,7.54,7.54,0,0,1-4.9,1.5c-2.4,0-3.7-.6-4-1.9V9.8a5.59,5.59,0,0,1,.7-2.4L14.3,0h3.1L14.3,7.3a6.67,6.67,0,0,0-.6,1.6c0,.5.5.8,1.5.8a3.94,3.94,0,0,0,2-.5,6.3,6.3,0,0,0,1.4-2.1l3-7h3.1ZM31.8,5.6H27.4c-.6,0-.9.1-1.1.4v.3h2.3c1.6,0,2.4.5,2.4,1.6a2.66,2.66,0,0,1-.3,1.2,6,6,0,0,1-1.4,2A3.52,3.52,0,0,1,27,12H20.9l1-2.5h4.8a1.13,1.13,0,0,0,1.2-.7V8.7c0-.1-.2-.1-.5-.1H25q-2.1,0-2.1-1.5a3.45,3.45,0,0,1,.3-1.3A4.24,4.24,0,0,1,27.5,3h5.2Zm9.4,0H38.1a3.42,3.42,0,0,0-1.1.1,1.85,1.85,0,0,0-.9.7h4.7L39.7,8.9H34.9a1.76,1.76,0,0,0-.1.6h0a2,2,0,0,0,1.1.2h3.5l-1,2.5H35c-2.1,0-3.2-.8-3.2-2.5a6.32,6.32,0,0,1,.5-2.1,6.29,6.29,0,0,1,6.2-4.3h3.7Zm7.2,1.7H45.5c.1-.2.2-.6.4-1a6.89,6.89,0,0,1,.3-.8h-.8l-2.8,6.7h-3l3.8-9h3.9c1.4,0,2,.4,2,1.3a3.73,3.73,0,0,1-.4,1.6Zm9.7-4.5H54.5L50.6,12H47.3l3.9-9.2H47.7L48.9.1H59.3Zm2.7,4.5H57.9c.1-.2.2-.6.4-1a6.89,6.89,0,0,1,.3-.8h-.8L55,12.2H52l3.8-9h3.9c1.4,0,2,.4,2,1.3a3.73,3.73,0,0,1-.4,1.6Zm7.5,4.8h-6c-1.4,0-2.1-.6-2.1-1.7a3.45,3.45,0,0,1,.3-1.3,4.17,4.17,0,0,1,1.9-2.2,5.81,5.81,0,0,1,2.8-.6h2.5a1.76,1.76,0,0,0,.1-.6,2.53,2.53,0,0,0-1.1-.1H62.5l1.1-2.5h4.6a3.69,3.69,0,0,1,2.1.4A1.58,1.58,0,0,1,71,5a3.81,3.81,0,0,1-.4,1.7ZM64.8,8.7c-.4,0-.7,0-.8.1a1.21,1.21,0,0,0-.5.5.1.1,0,0,1-.1.1c-.1,0,0,.1,0,.1s.2.2.5.2h2.4l.4-1ZM80.2,5.6h-3a3.45,3.45,0,0,0-1.8.5,3.44,3.44,0,0,0-1.1,1.6A3,3,0,0,0,74,8.8c0,.2,0,.3.1.4a1.74,1.74,0,0,0,1.2.3h3.1L77.3,12H74.2a3.66,3.66,0,0,1-2.9-1,2.07,2.07,0,0,1-.5-1.6,6.32,6.32,0,0,1,.5-2.1,6.54,6.54,0,0,1,6.4-4.4h3.5Zm5.7,2L88,12.1H84.2L82.8,8.8l-1.4,3.3h-3L83.5.1h3L83.9,6.2l4-3.1h4Zm12.5-2H95.3a3.42,3.42,0,0,0-1.1.1,1.85,1.85,0,0,0-.9.7H98L96.9,8.9H92.1a1.76,1.76,0,0,0-.1.6h0a2,2,0,0,0,1.1.2h3.6l-1,2.5H92.3c-2.1,0-3.2-.8-3.2-2.5a6.32,6.32,0,0,1,.5-2.1,6.29,6.29,0,0,1,6.2-4.3h3.7Zm7.3,1.7h-2.9c.1-.2.2-.6.4-1a6.89,6.89,0,0,1,.3-.8h-.8l-2.8,6.7h-3l3.8-9h3.9c1.4,0,2,.4,2,1.3a3.73,3.73,0,0,1-.4,1.6Z"/><path id="OTT端用户行为监测" class="cls-2" d="M6,22.7a5,5,0,0,1,1.2-3.5,4.08,4.08,0,0,1,3.2-1.3,3.54,3.54,0,0,1,3,1.3,5.32,5.32,0,0,1,1.2,3.3A5,5,0,0,1,13.4,26a3.94,3.94,0,0,1-3.2,1.3A3.87,3.87,0,0,1,7.1,26,4.72,4.72,0,0,1,6,22.7Zm1.2-.1A4,4,0,0,0,8,25.2a2.87,2.87,0,0,0,2.2,1,2.76,2.76,0,0,0,2.3-1,3.74,3.74,0,0,0,.9-2.6,4.14,4.14,0,0,0-.8-2.7,2.87,2.87,0,0,0-2.2-1,2.57,2.57,0,0,0-2.2,1A4.65,4.65,0,0,0,7.2,22.6Zm14.6-3.5H19.2v8H18v-8H15.4v-1h6.4Zm6.9,0H26.1v8H24.9v-8H22.3v-1h6.4Zm6,9.4V24.8H31.3a7.11,7.11,0,0,1-1.4,4,5,5,0,0,0-.7-.8,5.13,5.13,0,0,0,1-2.4,16,16,0,0,0,.3-3.6V17.8h9.6v9.3c0,.9-.4,1.4-1.3,1.4H37a4.4,4.4,0,0,0-.2-1c.7,0,1.2.1,1.7.1s.7-.2.7-.7V24.7H35.8v3.7H34.7v.1Zm1-4.6h3.4V21.7H35.7Zm3.4-5.2H35.7v2.2h3.4Zm-7.7,5.2h3.3V21.7H31.4A16.13,16.13,0,0,1,31.4,23.9Zm0-5.2v2.2h3.3V18.7ZM46,17.5l.8-.5a9.73,9.73,0,0,1,1.1,1.5l-.5.3h4.4V24h-.9v-.6H43.5a9.62,9.62,0,0,1-1.7,5.4,5,5,0,0,0-.7-.8c1-1.2,1.5-3,1.5-5.5V18.8h4.5C46.7,18.4,46.4,17.9,46,17.5Zm-2.5,2.2v2.9h7.4V19.7Zm13.9,1.8h7.4v.9H62.5V27A1.33,1.33,0,0,1,61,28.5H59a5.16,5.16,0,0,0-.2-1.1,10.87,10.87,0,0,0,1.8.1.74.74,0,0,0,.8-.8V22.4h-4Zm-4.3,2.6a14.65,14.65,0,0,0,3.3-4.2l.8.5a22.63,22.63,0,0,1-1.3,2v6.2h-1v-5l-1.5,1.5A1.93,1.93,0,0,0,53.1,24.1ZM58,18h6.1v.9H58Zm-4.8,2.4a13.84,13.84,0,0,0,3-3.4l.8.5a14.84,14.84,0,0,1-3.4,3.7A5.9,5.9,0,0,0,53.2,20.4Zm12.4-.2H70a30.29,30.29,0,0,0,.2-3.1h1a26.89,26.89,0,0,1-.2,3.1h5c0,2.4-.1,4.4-.2,6a2.07,2.07,0,0,1-2.3,2.2,18.55,18.55,0,0,1-2.2-.1,5.16,5.16,0,0,0-.2-1.1,16.35,16.35,0,0,0,2.2.2A1.39,1.39,0,0,0,74.8,26c.1-1.5.2-3.2.2-4.9H70.9a11,11,0,0,1-4.8,7.7c-.2-.3-.5-.6-.7-.9a9.53,9.53,0,0,0,4.5-6.8H65.6v-.9Zm5.6,3,.6-.6a19.36,19.36,0,0,1,2,2.1l-.7.7A20,20,0,0,0,71.2,23.2Zm-4.8-5.3.6-.6c.6.6,1.3,1.1,1.9,1.7l-.7.7A10.22,10.22,0,0,0,66.4,17.9Zm10.8,9.5h1.4V23.6h8.8v3.8h1.4v.8H77.2Zm4.6-6a15,15,0,0,0,2.4-4.3l.9.3-.6,1.5h4.2v.8H84.1A23,23,0,0,1,82.6,22,2.76,2.76,0,0,1,81.8,21.4Zm-.3-4.2v6.1h-.9V17.2Zm4.9,7.2H84.6v3h1.8Zm-7,3h1.7v-3H79.4Zm2.7,0h1.7v-3H82.1Zm-4-9.6H79v4.9h-.9Zm6.2,3.1.6-.6a24.33,24.33,0,0,1,2.5,2l-.7.7A22.53,22.53,0,0,0,84.3,20.9Zm6.3,2.9c.4.2.7.3.9.4-.5,2-.9,3.4-1.1,4.3l-1-.4A24.32,24.32,0,0,0,90.6,23.8Zm-.5-6.4A20.93,20.93,0,0,1,91.9,19l-.7.7c-.6-.6-1.1-1.2-1.7-1.7Zm-.5,3c.7.5,1.3,1.1,1.9,1.6a4.62,4.62,0,0,1-.7.7c-.7-.7-1.3-1.3-1.8-1.7Zm9.8-3.2h.9v10c0,.9-.4,1.3-1.3,1.3H97.7a4.4,4.4,0,0,0-.2-1,6.15,6.15,0,0,0,1.3.1.63.63,0,0,0,.7-.7l-.1-9.7Zm-1,8.7h-.8V18.1h.8Zm-6.3-8.1h4.4v7.4h-.8V18.6H93v6.6h-.8l-.1-7.4ZM94,19.7h.9v2.9a11.74,11.74,0,0,1-.3,2.9c1,.8,1.9,1.5,2.6,2.1l-.6.7a25.4,25.4,0,0,0-2.3-2,6.29,6.29,0,0,1-2.6,2.5c-.2-.3-.4-.5-.6-.8a5.79,5.79,0,0,0,2.4-2.2,6.73,6.73,0,0,0,.6-3.2L94,19.7Z"/></g></g></g></g></svg>