<?xml version="1.0" encoding="utf-8"?>
<!-- Generator: Adobe Illustrator 20.1.0, SVG Export Plug-In . SVG Version: 6.00 Build 0)  -->
<svg version="1.1" id="图层_1" xmlns="http://www.w3.org/2000/svg" xmlns:xlink="http://www.w3.org/1999/xlink" x="0px" y="0px"
	 viewBox="0 0 108 30" style="enable-background:new 0 0 108 30;" xml:space="preserve">
<style type="text/css">
	.st0{fill:#3DC0F0;}
	.st1{fill:#999999;}
</style>
<title>Artboard Copy 7</title>
<desc>Created with Sketch.</desc>
<g id="Page-1">
	<g id="Artboard-Copy-7">
		<g id="Group-18-Copy" transform="translate(0.000000, 1.000000)">
			<path id="oUserTracker" class="st0" d="M4.6,11.6c-1.5,0-2.4-0.4-3-1.3c-0.2-0.5-0.3-1-0.3-1.5c0-0.6,0.2-1.3,0.5-2.1
				C2.5,5,3.6,3.8,5,3c1-0.5,2.1-0.8,3.3-0.8s2,0.3,2.7,0.9c0.5,0.5,0.7,1.1,0.7,1.8c0,0.6-0.2,1.3-0.5,2.1
				c-0.6,1.4-1.4,2.4-2.6,3.2C7.4,11.1,6.1,11.6,4.6,11.6z M7.5,4.8C7.1,4.8,6.6,5,6.1,5.3C5.5,5.7,5,6.3,4.7,7.1
				c-0.2,0.4-0.2,0.7-0.2,1C4.5,8.7,4.8,9,5.4,9C5.9,9,6.5,8.8,7,8.3c0.5-0.4,0.9-0.9,1.1-1.6c0.2-0.4,0.3-0.8,0.3-1.1
				C8.5,5.1,8.1,4.8,7.5,4.8z M22.8,6.7c-0.7,1.5-1.4,2.6-2.1,3.2c-1.2,1-2.9,1.5-4.9,1.5c-2.4,0-3.7-0.6-4-1.9c0-0.1,0-0.2,0-0.4
				c0-0.6,0.2-1.4,0.7-2.4l3.1-7.4h3.1l-3.1,7.3C15.2,7.5,15,8,15,8.2C15,8.7,15.5,9,16.5,9c0.8,0,1.5-0.2,2-0.5
				c0.5-0.4,0.9-1.1,1.4-2.1l3-7H26L22.8,6.7z M33.1,4.9h-4.4c-0.6,0-0.9,0.1-1.1,0.4c0,0.1,0,0.2,0,0.3c0,0,0.1,0,0.3,0h2
				c1.6,0,2.4,0.5,2.4,1.6c0,0.4-0.1,0.8-0.3,1.2c-0.4,0.8-0.8,1.5-1.4,2c-0.7,0.6-1.5,0.9-2.3,0.9h-6.1l1-2.5H28
				c0.6,0,1-0.2,1.2-0.7V8c0-0.1-0.2-0.1-0.5-0.1h-1.9c-0.1,0-0.2,0-0.3,0s-0.2,0-0.2,0c-1.4,0-2.1-0.5-2.1-1.5
				c0-0.4,0.1-0.8,0.3-1.3c0.8-1.9,2.2-2.8,4.3-2.8H34L33.1,4.9z M42.5,4.9h-3.1c-0.5,0-0.8,0-1.1,0.1s-0.6,0.3-0.9,0.7h4.7L41,8.2
				h-4.8c-0.1,0.3-0.1,0.5-0.1,0.6l0,0C36.2,8.9,36.6,9,37.2,9h3.5l-1,2.5h-3.4c-2.1,0-3.2-0.8-3.2-2.5c0-0.6,0.2-1.3,0.5-2.1
				c1.2-2.9,3.3-4.3,6.2-4.3h3.7L42.5,4.9z M49.7,6.6h-2.9c0.1-0.2,0.2-0.6,0.4-1c0.1-0.3,0.2-0.6,0.3-0.8c-0.1,0-0.1,0-0.2,0h-0.1
				h-0.5l-2.8,6.7h-3l3.8-9h3.9c1.4,0,2,0.4,2,1.3c0,0.4-0.1,1-0.4,1.6L49.7,6.6z M59.4,2.1h-3.6l-3.9,9.2h-3.3l3.9-9.2H49l1.2-2.7
				h10.4L59.4,2.1z M62.1,6.6h-2.9c0.1-0.2,0.2-0.6,0.4-1c0.1-0.3,0.2-0.6,0.3-0.8c-0.1,0-0.1,0-0.2,0h-0.1h-0.5l-2.8,6.7h-3l3.8-9
				H61c1.4,0,2,0.4,2,1.3c0,0.4-0.1,1-0.4,1.6L62.1,6.6z M69.6,11.4h-6c-1.4,0-2.1-0.6-2.1-1.7c0-0.4,0.1-0.8,0.3-1.3
				c0.4-1,1.1-1.8,1.9-2.2c0.7-0.4,1.7-0.6,2.8-0.6H69c0.1-0.3,0.1-0.5,0.1-0.6C69,4.9,68.6,4.9,68,4.9h-4.2l1.1-2.5h4.6
				c1,0,1.7,0.1,2.1,0.4c0.5,0.3,0.7,0.8,0.7,1.5c0,0.5-0.1,1.1-0.4,1.7L69.6,11.4z M66.1,8c-0.4,0-0.7,0-0.8,0.1
				c-0.2,0.1-0.4,0.3-0.5,0.5c0,0,0,0.1-0.1,0.1s0,0.1,0,0.1c0,0.1,0.2,0.2,0.5,0.2h2.4L68,8H66.1z M81.5,4.9h-3
				c-0.7,0-1.3,0.2-1.8,0.5c-0.4,0.3-0.8,0.8-1.1,1.6c-0.2,0.5-0.3,0.8-0.3,1.1c0,0.2,0,0.3,0.1,0.4c0.2,0.2,0.6,0.3,1.2,0.3h3.1
				l-1.1,2.5h-3.1c-1.3,0-2.3-0.3-2.9-1c-0.4-0.4-0.5-0.9-0.5-1.6c0-0.6,0.2-1.3,0.5-2.1C73.8,3.7,76,2.2,79,2.2h3.5L81.5,4.9z
				 M87.2,6.9l2.1,4.5h-3.8l-1.4-3.3l-1.4,3.3h-3l5.1-12h3l-2.6,6.1l4-3.1h4L87.2,6.9z M99.7,4.9h-3.1c-0.5,0-0.8,0-1.1,0.1
				c-0.3,0.1-0.6,0.3-0.9,0.7h4.7l-1.1,2.5h-4.8c-0.1,0.3-0.1,0.5-0.1,0.6l0,0C93.4,8.9,93.8,9,94.4,9H98l-1,2.5h-3.4
				c-2.1,0-3.2-0.8-3.2-2.5c0-0.6,0.2-1.3,0.5-2.1c1.2-2.9,3.3-4.3,6.2-4.3h3.7L99.7,4.9z M107,6.6h-2.9c0.1-0.2,0.2-0.6,0.4-1
				c0.1-0.3,0.2-0.6,0.3-0.8c-0.1,0-0.1,0-0.2,0h-0.1H104l-2.8,6.7h-3l3.8-9h3.9c1.4,0,2,0.4,2,1.3c0,0.4-0.1,1-0.4,1.6L107,6.6z"/>
			<path id="OTT端用户行为监测" class="st1" d="M0.6,21.6c0-1.5,0.4-2.6,1.2-3.5s1.9-1.3,3.2-1.3s2.3,0.4,3,1.3
				s1.2,2,1.2,3.3c0,1.5-0.4,2.6-1.2,3.5s-1.8,1.3-3.2,1.3c-1.3,0-2.3-0.4-3.1-1.3S0.6,22.9,0.6,21.6z M1.8,21.5
				c0,1.1,0.3,2,0.8,2.6s1.3,1,2.2,1c1,0,1.7-0.3,2.3-1S8,22.6,8,21.5c0-1.2-0.3-2.1-0.8-2.7s-1.3-1-2.2-1s-1.7,0.3-2.2,1
				S1.8,20.4,1.8,21.5z M16.4,18h-2.6v8h-1.2v-8H10v-1h6.4V18z M23.3,18h-2.6v8h-1.2v-8h-2.6v-1h6.4C23.3,17,23.3,18,23.3,18z
				 M27.8,20.5h7.6v0.8h-3.5l-0.3,1.3h3.3v3.9c0,0.7-0.3,1-0.9,1c-0.2,0-0.5,0-0.9,0c-0.1-0.3-0.1-0.6-0.2-0.9c0.3,0,0.5,0,0.8,0
				c0.2,0,0.4-0.1,0.4-0.4v-3h-1.2v3.7H32v-3.7h-1.2v3.6H30v-3.6h-1.2v4.3H28v-5h2.6l0.3-1.3h-3.2v-0.7H27.8z M33.7,19.7v-0.4h-5.3
				v-2.6h0.8v1.9H31V16h0.8v2.6h1.8v-1.9h0.8v3H33.7z M27.5,20c-0.1,1.2-0.4,2.8-0.8,4.9c0.4-0.1,0.8-0.2,1.1-0.3c0,0.3,0,0.6,0,0.8
				c-0.9,0.2-2.2,0.5-3.9,0.8l-0.2-0.9c0.8-0.1,1.5-0.3,2.1-0.4c0.4-2.3,0.6-4.1,0.8-5.2L27.5,20z M24,20.2l0.8-0.2
				c0.3,1.1,0.5,2.5,0.8,4.1l-0.8,0.2C24.5,22.8,24.3,21.4,24,20.2z M23.8,18.4h4v0.8h-4V18.4z M24.8,16.5l0.7-0.4
				c0.5,0.6,0.9,1.2,1.2,1.8l-0.8,0.5C25.6,17.7,25.3,17.1,24.8,16.5z M41.3,27.4v-3.7h-3.4c-0.1,1.6-0.6,3-1.4,4
				c-0.2-0.3-0.4-0.5-0.7-0.8c0.5-0.7,0.9-1.5,1-2.4c0.2-0.8,0.3-2,0.3-3.6v-4.2h9.6V26c0,0.9-0.4,1.4-1.3,1.4c-0.5,0-1.1,0-1.8,0
				c0-0.3-0.1-0.6-0.2-1c0.7,0,1.2,0.1,1.7,0.1s0.7-0.2,0.7-0.7v-2.2h-3.4v3.7h-1.1V27.4z M42.3,22.8h3.4v-2.2h-3.4V22.8z
				 M45.7,17.6h-3.4v2.2h3.4V17.6z M38,22.8h3.3v-2.2H38C38.1,21.4,38,22.1,38,22.8z M38,17.6v2.2h3.3v-2.2H38z M52.6,16.4l0.8-0.5
				c0.4,0.4,0.7,0.9,1.1,1.5L54,17.7h4.4v5.2h-0.9v-0.6h-7.4c-0.1,2.3-0.7,4-1.7,5.4c-0.2-0.3-0.4-0.5-0.7-0.8c1-1.2,1.5-3,1.5-5.5
				v-3.7h4.5C53.3,17.3,53,16.8,52.6,16.4z M50.1,18.6v2.9h7.4v-2.9H50.1z M64,20.4h7.4v0.9h-2.3v4.6c0,1-0.5,1.5-1.5,1.5
				c-0.7,0-1.3,0-2,0c0-0.3-0.1-0.7-0.2-1.1c0.6,0.1,1.2,0.1,1.8,0.1c0.5,0,0.8-0.3,0.8-0.8v-4.3h-4V20.4z M59.7,23
				c1.2-1,2.3-2.4,3.3-4.2l0.8,0.5c-0.4,0.7-0.8,1.3-1.3,2v6.2h-1v-5c-0.5,0.5-1,1-1.5,1.5C60,23.7,59.9,23.3,59.7,23z M64.6,16.9
				h6.1v0.9h-6.1V16.9z M59.8,19.3c1.2-1,2.2-2.1,3-3.4l0.8,0.5c-0.9,1.4-2,2.6-3.4,3.7C60.1,19.9,60,19.6,59.8,19.3z M72.2,19.1
				h4.4c0.1-1,0.2-2,0.2-3.1h1c0,1.2-0.1,2.2-0.2,3.1h5c0,2.4-0.1,4.4-0.2,6c-0.1,1.5-0.9,2.2-2.3,2.2c-0.6,0-1.3,0-2.2-0.1
				c0-0.3-0.1-0.7-0.2-1.1c0.7,0.1,1.5,0.2,2.2,0.2c0.9,0,1.4-0.5,1.5-1.4c0.1-1.5,0.2-3.2,0.2-4.9h-4.1c-0.6,3.4-2.2,6-4.8,7.7
				c-0.2-0.3-0.5-0.6-0.7-0.9c2.4-1.4,3.9-3.7,4.5-6.8h-4.3V19.1z M77.8,22.1l0.6-0.6c0.8,0.7,1.4,1.4,2,2.1l-0.7,0.7
				C79.1,23.5,78.5,22.8,77.8,22.1z M73,16.8l0.6-0.6c0.6,0.6,1.3,1.1,1.9,1.7l-0.7,0.7C74.3,18,73.7,17.3,73,16.8z M83.8,26.3h1.4
				v-3.8H94v3.8h1.4v0.8H83.8V26.3z M88.4,20.3c1-1.2,1.8-2.7,2.4-4.3l0.9,0.3c-0.2,0.5-0.4,1-0.6,1.5h4.2v0.8h-4.6
				c-0.5,0.9-1,1.6-1.5,2.3C88.8,20.7,88.6,20.5,88.4,20.3z M88.1,16.1v6.1h-0.9v-6.1H88.1z M93,23.3h-1.8v3H93V23.3z M86,26.3h1.7
				v-3H86V26.3z M88.7,26.3h1.7v-3h-1.7V26.3z M84.7,16.7h0.9v4.9h-0.9V16.7z M90.9,19.8l0.6-0.6c0.9,0.6,1.7,1.3,2.5,2l-0.7,0.7
				C92.5,21.1,91.7,20.4,90.9,19.8z M97.2,22.7c0.4,0.2,0.7,0.3,0.9,0.4c-0.5,2-0.9,3.4-1.1,4.3L96,27
				C96.5,25.7,96.9,24.3,97.2,22.7z M96.7,16.3c0.5,0.4,1.1,0.9,1.8,1.6c-0.3,0.3-0.5,0.5-0.7,0.7c-0.6-0.6-1.1-1.2-1.7-1.7
				L96.7,16.3z M96.2,19.3c0.7,0.5,1.3,1.1,1.9,1.6c-0.2,0.2-0.4,0.5-0.7,0.7c-0.7-0.7-1.3-1.3-1.8-1.7L96.2,19.3z M106,16.1h0.9v10
				c0,0.9-0.4,1.3-1.3,1.3c-0.4,0-0.8,0-1.3,0c0-0.3-0.1-0.6-0.2-1c0.5,0.1,0.9,0.1,1.3,0.1s0.7-0.2,0.7-0.7L106,16.1L106,16.1z
				 M105,24.8h-0.8V17h0.8V24.8z M98.7,16.7h4.4v7.4h-0.8v-6.6h-2.7v6.6h-0.8L98.7,16.7L98.7,16.7z M100.6,18.6h0.9v2.9
				c0,1.2-0.1,2.1-0.3,2.9c1,0.8,1.9,1.5,2.6,2.1l-0.6,0.7c-0.6-0.6-1.4-1.3-2.3-2c-0.5,1-1.4,1.8-2.6,2.5c-0.2-0.3-0.4-0.5-0.6-0.8
				c1.2-0.7,2-1.4,2.4-2.2c0.4-0.7,0.6-1.8,0.6-3.2L100.6,18.6L100.6,18.6z"/>
		</g>
	</g>
</g>
</svg>
