<?xml version="1.0" encoding="utf-8"?>
<!-- Generator: Adobe Illustrator 20.1.0, SVG Export Plug-In . SVG Version: 6.00 Build 0)  -->
<svg version="1.1" id="图层_1" xmlns="http://www.w3.org/2000/svg" xmlns:xlink="http://www.w3.org/1999/xlink" x="0px" y="0px"
	 viewBox="0 0 119 30" style="enable-background:new 0 0 119 30;" xml:space="preserve">
<style type="text/css">
	.st0{fill:#999999;}
	.st1{fill:#69C72B;}
</style>
<title>Artboard Copy 4</title>
<desc>Created with Sketch.</desc>
<g id="Page-1">
	<g id="Artboard-Copy-4">
		<g id="Page-1-Copy-2">
			<path id="Fill-1" class="st0" d="M115.6,26.4h0.8v-7.8h-0.8V26.4z M117.4,17.7h0.9v10c0,0.9-0.4,1.3-1.3,1.3c-0.4,0-0.8,0-1.3,0
				c0-0.3-0.1-0.6-0.2-1c0.5,0.1,0.9,0.1,1.3,0.1c0.4,0,0.7-0.2,0.7-0.7V17.7z M110.1,18.4h4.4v7.4h-0.8v-6.6H111v6.6h-0.8V18.4z
				 M112,20.2h0.9v2.9c0,1.2-0.1,2.1-0.3,2.9c1,0.8,1.9,1.5,2.6,2.1l-0.6,0.7c-0.6-0.6-1.4-1.3-2.3-2c-0.5,1-1.4,1.8-2.6,2.5
				c-0.2-0.2-0.4-0.5-0.6-0.8c1.2-0.7,2-1.4,2.4-2.2c0.4-0.7,0.6-1.8,0.6-3.2V20.2z M108.1,17.9c0.5,0.4,1.1,0.9,1.8,1.6
				c-0.3,0.2-0.5,0.5-0.7,0.7c-0.6-0.6-1.1-1.2-1.7-1.7L108.1,17.9z M107.4,28.6c0.5-1.3,0.9-2.7,1.2-4.3c0.4,0.2,0.7,0.3,0.9,0.4
				c-0.5,2-0.9,3.4-1.1,4.3L107.4,28.6z M107.6,20.9c0.7,0.5,1.3,1.1,1.9,1.6c-0.2,0.2-0.4,0.5-0.7,0.7c-0.7-0.7-1.3-1.3-1.8-1.7
				L107.6,20.9z M102.7,27.9h1.8v-3h-1.8V27.9z M104.8,23.5c-0.9-0.8-1.7-1.5-2.5-2.1l0.6-0.6c0.9,0.6,1.7,1.3,2.5,2L104.8,23.5z
				 M100.1,27.9h1.7v-3h-1.7V27.9z M100.5,22.5c-0.2-0.2-0.5-0.4-0.7-0.6c1-1.2,1.8-2.7,2.4-4.3l0.9,0.3c-0.2,0.5-0.4,1-0.6,1.5h4.2
				v0.8H102C101.5,21,101,21.8,100.5,22.5L100.5,22.5z M98.7,23.8h0.9v-6.1h-0.9V23.8z M97.5,27.9h1.7v-3h-1.7V27.9z M96.1,23.2H97
				v-4.9h-0.9V23.2z M95.2,27.9h1.4v-3.8h8.8v3.8h1.4v0.8H95.2V27.9z M91.9,19.2h-4.6v-0.8h6.2v0.9L89,22.1h5.3
				c-0.1,2.2-0.2,3.8-0.3,5c-0.1,1.2-0.7,1.8-1.7,1.8c-0.3,0-0.9,0-1.6,0c-0.1-0.4-0.1-0.7-0.2-1c0.5,0.1,1.1,0.1,1.6,0.1
				c0.6,0,0.9-0.3,0.9-1c0.1-1,0.2-2.3,0.2-4h-1.3c-0.3,2.6-1.6,4.7-3.6,6.2c-0.2-0.3-0.4-0.5-0.7-0.7c1.9-1.3,3.1-3.2,3.4-5.5h-1.5
				c-0.4,2-1.6,3.6-3.3,4.8c-0.2-0.2-0.4-0.5-0.6-0.7c1.6-1.1,2.6-2.5,3.1-4.2h-1.4v-0.9L91.9,19.2z M83.1,26.3
				c0.6-0.2,1.1-0.5,1.7-0.7v-4h-1.6v-0.8h1.6v-2.9h0.9v2.9h1.4v0.8h-1.4v3.7c0.4-0.2,0.9-0.4,1.3-0.6c0,0.3,0.1,0.6,0.1,0.9
				c-1.1,0.5-2.4,1.1-3.6,1.7L83.1,26.3z M73.2,28h-0.9v-6.1h4.2v-1.6h-5.2v-0.9h5.5c-0.2-0.5-0.5-1-0.8-1.5l0.9-0.4
				c0.3,0.5,0.6,1,0.9,1.5L77,19.4h5.7v0.9h-5.2v1.6h4.3v4.4c0,1-0.5,1.5-1.4,1.5c-0.4,0-1,0-1.7,0c0-0.3-0.1-0.6-0.2-0.9
				c0.6,0,1.2,0.1,1.6,0.1c0.5,0,0.8-0.3,0.8-0.8v-3.3h-3.3v6.4h-0.9v-6.4h-3.3V28z M66.5,20.4c1.2,0.5,2.4,1.2,3.6,1.8l-0.5,0.8
				c-1-0.6-2.2-1.2-3.6-1.9L66.5,20.4z M62.1,27.9h5.7v-2h-5.7V27.9z M68.2,25c-1.4-0.7-2.5-1.5-3.4-2.4c-1,0.9-2,1.8-3.1,2.4H68.2z
				 M59.7,22.4c1.3-0.6,2.5-1.2,3.6-2l0.6,0.8c-1.4,0.9-2.6,1.6-3.6,2C60.1,22.9,60,22.7,59.7,22.4L59.7,22.4z M59.6,19h5
				c-0.2-0.3-0.4-0.6-0.6-1l0.9-0.4c0.3,0.4,0.6,0.9,0.8,1.4h4.5v2h-0.9v-1.1h-8.7v1.2h-0.9V19z M65.6,21.7
				c-0.1,0.1-0.1,0.1-0.2,0.2c1.5,1.4,3.3,2.4,5.4,3c-0.3,0.4-0.5,0.7-0.6,1c-0.5-0.2-1-0.4-1.5-0.6v3.9h-0.9v-0.5h-5.7v0.5h-0.9
				v-3.8c-0.5,0.3-1,0.5-1.6,0.7c-0.1-0.3-0.3-0.6-0.5-0.8c2.4-1,4.3-2.3,5.6-3.7L65.6,21.7z M48.1,19.8h4.3v-2h1v2h4.3v7.7
				c0,1-0.5,1.5-1.5,1.5c-0.5,0-1.1,0-1.9,0c0-0.3-0.1-0.6-0.2-1C54.9,28,55.6,28,56,28c0.5,0,0.7-0.2,0.7-0.7v-6.6h-3.4
				c0,0.7-0.1,1.3-0.3,1.9c1.4,1.1,2.5,2.1,3.4,2.9l-0.7,0.8c-0.8-0.9-1.8-1.9-2.9-2.8c-0.5,1.1-1.5,2.1-3,3
				c-0.3-0.5-0.5-0.7-0.7-0.8c1.3-0.7,2.1-1.4,2.6-2.2c0.4-0.6,0.6-1.5,0.7-2.7h-3.4v8.4h-0.9V19.8z M41,20.7h1.7l0.3-1.5h-2.5v-0.8
				h6.3v0.8h-2.8l-0.4,1.5h2.7v6.1h-0.9v-5.3h-3.5v5.3H41V20.7z M43.1,22.2H44V24c0,0.9-0.1,1.7-0.3,2.3c1.2,0.7,2.3,1.4,3.2,2.1
				l-0.6,0.8c-1-0.8-2-1.5-3-2.1c0,0.1-0.1,0.2-0.2,0.2c-0.6,0.8-1.6,1.5-3,2c-0.2-0.2-0.4-0.5-0.6-0.8c1.4-0.5,2.3-1.1,2.8-1.7
				c0.5-0.6,0.8-1.6,0.8-2.8V22.2z M35.1,21.9h0.8v-3.1h0.8v3.1H38v-4.2h0.8v1.8h1.6v0.8h-1.6v1.6h1.8v0.8h-5.5V21.9z M37.9,23h0.8
				v3c0.5-0.6,0.9-1.2,1.2-1.9l0.8,0.5c-1.1,2.1-2.8,3.6-5.1,4.7c-0.1-0.2-0.4-0.5-0.6-0.8c1.3-0.6,2.4-1.3,3.3-2.2h-0.5V23z
				 M35.8,26.9c-0.2-0.1-0.5-0.3-0.8-0.4c0.4-0.8,0.8-1.7,1.2-2.8L37,24C36.7,25.1,36.2,26.1,35.8,26.9L35.8,26.9z M27.9,18.3h5.9
				v7.2h-0.9v-6.4h-4.1v6.4h-0.9V18.3z M30.2,23.2c0-0.9,0.1-1.9,0.1-3.2h0.9c0,2.2-0.1,3.6-0.2,4.1h0.7v3.2c0,0.5,0.2,0.7,0.6,0.7
				h0.6c0.5,0,0.7-0.2,0.8-0.6c0.1-0.4,0.1-1,0.1-1.7c0.3,0.1,0.6,0.2,0.9,0.4c-0.1,0.7-0.1,1.2-0.2,1.6c-0.1,0.7-0.6,1.1-1.4,1.1
				h-1c-0.9,0-1.4-0.5-1.4-1.4V25c-0.5,2-1.8,3.4-3.9,4.3c-0.2-0.2-0.4-0.5-0.6-0.8C28.8,27.6,30.1,25.8,30.2,23.2L30.2,23.2z
				 M25.2,19.8c-0.3-0.6-0.6-1.2-0.9-1.7l0.8-0.4c0.3,0.5,0.6,1,0.9,1.6L25.2,19.8z M23.2,20.9v-0.8H27V21c-0.4,0.7-0.8,1.4-1.3,2
				v0.6l0.5-0.5c0.6,0.5,1.1,1,1.5,1.5L27,25.2c-0.4-0.5-0.9-0.9-1.4-1.5v5.4h-0.9v-5.1c-0.4,0.5-0.9,0.9-1.3,1.3
				c-0.1-0.3-0.2-0.6-0.3-1c1.2-1.1,2.2-2.2,2.8-3.5H23.2z M22.7,19.6h-2.6v8h-1.2v-8h-2.6v-1h6.4V19.6z M15.8,19.6h-2.6v8h-1.2v-8
				H9.4v-1h6.4V19.6z M1.2,23.1c0,1.1,0.3,2,0.8,2.6c0.6,0.7,1.3,1,2.2,1c1,0,1.7-0.3,2.3-1s0.8-1.5,0.8-2.7c0-1.2-0.3-2.1-0.8-2.7
				c-0.5-0.6-1.3-1-2.2-1c-0.9,0-1.7,0.3-2.2,1C1.5,21.1,1.2,22,1.2,23.1L1.2,23.1z M0,23.2c0-1.5,0.4-2.6,1.2-3.5
				c0.8-0.9,1.9-1.3,3.2-1.3c1.3,0,2.3,0.4,3,1.3s1.2,2,1.2,3.3c0,1.5-0.4,2.6-1.2,3.5c-0.8,0.9-1.8,1.3-3.2,1.3
				c-1.3,0-2.3-0.4-3.1-1.3C0.4,25.7,0,24.6,0,23.2L0,23.2z"/>
			<path id="Fill-3" class="st1" d="M9.6,7.4C9.3,8,9,8.5,8.5,8.9C7.9,9.4,7.4,9.6,6.8,9.6c-0.6,0-0.9-0.3-0.9-0.9
				c0-0.3,0.1-0.6,0.2-1c0.3-0.7,0.8-1.3,1.4-1.8c0.5-0.3,1-0.5,1.4-0.5c0.6,0,0.9,0.3,0.9,0.9C9.9,6.6,9.8,6.9,9.6,7.4 M9.7,2.8
				c-1.2,0-2.2,0.3-3.3,0.8C5,4.4,3.9,5.6,3.2,7.3C2.9,8.1,2.7,8.8,2.7,9.4c0,0.5,0.1,1,0.4,1.4c0.5,0.9,1.5,1.3,3,1.3
				c1.4,0,2.7-0.4,3.9-1.3c1.1-0.8,2-1.9,2.6-3.2C12.9,6.9,13,6.2,13,5.6c0-0.7-0.2-1.3-0.7-1.8C11.7,3.1,10.8,2.8,9.7,2.8"/>
			<polygon id="Fill-4" class="st1" points="23.6,0 17.2,7.6 17.4,0 14,0 14.1,12 17.1,12 27.1,0 			"/>
			<polygon id="Fill-5" class="st1" points="26.4,3.6 22.9,12 25.9,12 29.5,3.6 			"/>
			<polygon id="Fill-6" class="st1" points="31,0 28,0 26.9,2.6 29.9,2.6 			"/>
			<path id="Fill-7" class="st1" d="M33.9,9.5h-1c-0.8,0-1.3-0.1-1.4-0.4c-0.1-0.2,0-0.6,0.2-1.2C32.1,7,32.5,6.4,33,6
				c0.4-0.3,1.1-0.5,2-0.5h0.5L33.9,9.5z M37.9,0l-1.3,3H35c-1.4,0-2.6,0.4-3.7,1.2c-1,0.8-1.8,1.8-2.4,3.2c-0.3,0.8-0.5,1.4-0.5,2
				c0,0.6,0.2,1.2,0.6,1.6c0.5,0.6,1.4,1,2.5,1h4.4L41,0H37.9z"/>
			<path id="Fill-8" class="st1" d="M43.7,5.6c0.3-0.1,0.6-0.1,1.1-0.1h3.1L49,3h-3.7c-2.9,0-5,1.4-6.2,4.3
				c-0.3,0.8-0.5,1.5-0.5,2.1c0,1.7,1.1,2.5,3.2,2.5h3.4l1-2.5h-3.5c-0.7,0-1-0.1-1.1-0.2c0,0,0,0,0,0c0-0.1,0-0.3,0.1-0.6h4.8
				l1.1-2.5h-4.7C43.1,5.9,43.4,5.7,43.7,5.6"/>
			<path id="Fill-9" class="st1" d="M54.6,7.4C54.4,8,54,8.5,53.5,8.9c-0.5,0.5-1.1,0.7-1.7,0.7c-0.6,0-0.9-0.3-0.9-0.9
				c0-0.3,0.1-0.6,0.2-1c0.3-0.7,0.8-1.3,1.4-1.8c0.5-0.3,1-0.5,1.4-0.5c0.6,0,0.9,0.3,0.9,0.9C54.9,6.6,54.8,6.9,54.6,7.4
				 M58.1,5.6c0-0.7-0.2-1.3-0.7-1.8c-0.6-0.6-1.5-0.9-2.7-0.9c-1.2,0-2.2,0.3-3.3,0.8c-1.4,0.8-2.5,2-3.2,3.7
				c-0.3,0.8-0.5,1.5-0.5,2.1c0,0.5,0.1,1,0.4,1.4c0.5,0.9,1.5,1.3,3,1.3c1.4,0,2.7-0.4,3.9-1.3c1.1-0.8,2-1.9,2.6-3.2
				C57.9,6.9,58.1,6.2,58.1,5.6"/>
			<polygon id="Fill-10" class="st1" points="67.8,2.8 68.9,0 58.5,0 57.4,2.8 60.9,2.8 57,12 60.3,12 64.2,2.8 			"/>
			<path id="Fill-11" class="st1" d="M67.5,7.2h2.9l0.5-1.3c0.3-0.7,0.4-1.2,0.4-1.6c0-0.9-0.7-1.3-2-1.3h-3.9l-3.8,9h3l2.8-6.7
				l0.6,0h0.1h0.2c-0.1,0.2-0.2,0.5-0.3,0.8C67.8,6.6,67.6,7,67.5,7.2"/>
			<path id="Fill-12" class="st1" d="M76,9.6h-2.4c-0.3,0-0.4,0-0.5-0.1c0,0,0,0,0-0.1c0,0,0-0.1,0.1-0.1c0.1-0.3,0.3-0.5,0.5-0.5
				c0.2-0.1,0.4-0.1,0.8-0.1h1.9L76,9.6z M79.9,3.4C79.5,3.1,78.8,3,77.9,3h-4.6l-1.1,2.5h4.2c0.6,0,1,0.1,1.1,0.2
				c0,0.1,0,0.3-0.1,0.6h-2.6c-1.2,0-2.1,0.2-2.8,0.6C71.2,7.3,70.6,8,70.1,9c-0.2,0.5-0.3,0.9-0.3,1.3c0,1.1,0.7,1.7,2.1,1.7h6
				l2.3-5.4c0.3-0.7,0.4-1.2,0.4-1.7C80.7,4.3,80.4,3.8,79.9,3.4L79.9,3.4z"/>
			<path id="Fill-13" class="st1" d="M85.1,9.5c-0.7,0-1.1-0.1-1.2-0.3c-0.1-0.1-0.1-0.2-0.1-0.4c0-0.3,0.1-0.7,0.3-1.1
				c0.3-0.7,0.7-1.2,1.1-1.6c0.5-0.4,1-0.5,1.8-0.5h3L91,3h-3.5c-3,0-5.1,1.5-6.4,4.4c-0.3,0.8-0.5,1.5-0.5,2.1
				c0,0.6,0.2,1.1,0.5,1.6c0.6,0.7,1.5,1,2.9,1h3.1l1.1-2.5H85.1z"/>
			<polygon id="Fill-14" class="st1" points="101.8,3 97.7,3 93.7,6.1 96.3,0 93.3,0 88.2,12 91.2,12 92.6,8.7 93.9,12 97.7,12 
				95.6,7.5 			"/>
			<path id="Fill-15" class="st1" d="M101.8,9.4C101.8,9.3,101.8,9.3,101.8,9.4c0-0.1,0-0.3,0.1-0.6h4.8l1.1-2.5H103
				c0.3-0.3,0.6-0.5,0.9-0.7c0.3-0.1,0.6-0.1,1.1-0.1h3.1l1-2.5h-3.7c-2.9,0-5,1.4-6.2,4.3c-0.3,0.8-0.5,1.5-0.5,2.1
				c0,1.7,1.1,2.5,3.2,2.5h3.4l1-2.5h-3.5C102.2,9.5,101.9,9.5,101.8,9.4"/>
			<path id="Fill-16" class="st1" d="M114.3,3h-3.9l-3.8,9h3l2.8-6.7l0.6,0h0.1h0.2c-0.1,0.2-0.2,0.5-0.3,0.8
				c-0.2,0.5-0.4,0.8-0.4,1h2.9l0.5-1.3c0.3-0.7,0.4-1.2,0.4-1.6C116.3,3.4,115.6,3,114.3,3"/>
		</g>
	</g>
</g>
</svg>
